<svg xmlns="http://www.w3.org/2000/svg" xmlns:xlink="http://www.w3.org/1999/xlink" width="1080" zoomAndPan="magnify" viewBox="0 0 810 809.999993" height="1080" preserveAspectRatio="xMidYMid meet" version="1.0"><path fill="#ffffff" d="M 143.214844 -6.558594 L 145.089844 34.488281 C 145.363281 40.496094 151.210938 44.652344 156.976562 42.9375 L 192.066406 32.503906 L 156.921875 47.253906 C 151.742188 49.429688 149.679688 55.679688 152.542969 60.511719 L 173.40625 95.703125 L 150.679688 64.683594 C 146.984375 59.636719 139.445312 59.636719 135.75 64.683594 L 113.023438 95.703125 L 133.886719 60.511719 C 136.75 55.679688 134.6875 49.429688 129.507812 47.253906 L 94.363281 32.503906 L 129.453125 42.9375 C 135.222656 44.652344 141.066406 40.496094 141.339844 34.488281 Z M 143.214844 -6.558594 " fill-opacity="1" fill-rule="nonzero"/><path fill="#ffffff" d="M 361.785156 47.695312 L 362.453125 61.027344 C 362.75 66.921875 368.414062 71.035156 374.113281 69.496094 L 387 66.015625 L 374.527344 70.773438 C 369.011719 72.875 366.847656 79.535156 370.074219 84.476562 L 377.367188 95.65625 L 368.988281 85.265625 C 365.28125 80.671875 358.28125 80.671875 354.578125 85.265625 L 346.199219 95.65625 L 353.492188 84.476562 C 356.71875 79.535156 354.554688 72.875 349.039062 70.773438 L 336.566406 66.015625 L 349.453125 69.496094 C 355.152344 71.035156 360.816406 66.921875 361.113281 61.027344 Z M 361.785156 47.695312 " fill-opacity="1" fill-rule="nonzero"/><path fill="#ffffff" d="M 534.800781 281.757812 L 534.359375 272.929688 L 533.914062 281.757812 C 533.617188 287.652344 527.953125 291.769531 522.257812 290.230469 L 513.722656 287.921875 L 521.980469 291.074219 C 527.496094 293.175781 529.660156 299.835938 526.433594 304.78125 L 521.605469 312.183594 L 527.152344 305.300781 C 530.855469 300.707031 537.859375 300.707031 541.5625 305.300781 L 547.113281 312.183594 L 542.28125 304.78125 C 539.054688 299.835938 541.222656 293.175781 546.738281 291.074219 L 554.996094 287.921875 L 546.460938 290.230469 C 540.761719 291.769531 535.097656 287.652344 534.800781 281.757812 Z M 534.800781 281.757812 " fill-opacity="1" fill-rule="nonzero"/><path fill="#ffffff" d="M 238.859375 581.730469 L 239.691406 598.324219 C 239.988281 604.21875 245.652344 608.335938 251.351562 606.796875 L 267.394531 602.460938 L 251.867188 608.382812 C 246.351562 610.484375 244.1875 617.144531 247.414062 622.089844 L 256.492188 636.003906 L 246.0625 623.070312 C 242.355469 618.472656 235.355469 618.472656 231.652344 623.070312 L 221.222656 636.003906 L 230.300781 622.089844 C 233.527344 617.144531 231.363281 610.484375 225.847656 608.382812 L 210.324219 602.460938 L 226.363281 606.796875 C 232.0625 608.335938 237.726562 604.21875 238.023438 598.324219 Z M 238.859375 581.730469 " fill-opacity="1" fill-rule="nonzero"/><path fill="#ffffff" d="M 513.824219 737.632812 L 513.6875 734.972656 L 513.554688 737.632812 C 513.257812 743.527344 507.59375 747.644531 501.898438 746.105469 L 499.324219 745.410156 L 501.816406 746.359375 C 507.332031 748.464844 509.492188 755.121094 506.269531 760.066406 L 504.8125 762.300781 L 506.484375 760.222656 C 510.191406 755.628906 517.191406 755.628906 520.894531 760.222656 L 522.570312 762.300781 L 521.113281 760.066406 C 517.886719 755.121094 520.050781 748.464844 525.566406 746.359375 L 528.058594 745.410156 L 525.484375 746.105469 C 519.785156 747.644531 514.121094 743.527344 513.824219 737.632812 Z M 513.824219 737.632812 " fill-opacity="1" fill-rule="nonzero"/><path fill="#ffffff" d="M 649.871094 8.355469 L 650.945312 29.640625 C 651.238281 35.535156 656.902344 39.652344 662.601562 38.113281 L 683.175781 32.550781 L 663.265625 40.148438 C 657.75 42.25 655.585938 48.910156 658.808594 53.851562 L 670.457031 71.703125 L 657.078125 55.113281 C 653.375 50.515625 646.371094 50.515625 642.667969 55.113281 L 629.289062 71.703125 L 640.9375 53.851562 C 644.160156 48.910156 641.996094 42.25 636.480469 40.148438 L 616.570312 32.550781 L 637.144531 38.113281 C 642.84375 39.652344 648.507812 35.535156 648.800781 29.640625 Z M 649.871094 8.355469 " fill-opacity="1" fill-rule="nonzero"/><path fill="#ffffff" d="M 80.140625 235.179688 L 79.722656 226.90625 L 79.308594 235.179688 C 79.011719 241.078125 73.347656 245.191406 67.648438 243.652344 L 59.652344 241.488281 L 67.390625 244.441406 C 72.90625 246.546875 75.070312 253.203125 71.84375 258.148438 L 67.320312 265.085938 L 72.519531 258.636719 C 76.222656 254.042969 83.226562 254.042969 86.929688 258.636719 L 92.128906 265.085938 L 87.601562 258.148438 C 84.378906 253.203125 86.542969 246.546875 92.054688 244.441406 L 99.796875 241.488281 L 91.800781 243.652344 C 86.101562 245.191406 80.4375 241.078125 80.140625 235.179688 Z M 80.140625 235.179688 " fill-opacity="1" fill-rule="nonzero"/><path fill="#ffffff" d="M 399.601562 420.515625 L 400.257812 433.617188 C 400.558594 439.511719 406.222656 443.625 411.917969 442.085938 L 424.578125 438.667969 L 412.324219 443.339844 C 406.808594 445.445312 404.648438 452.101562 407.871094 457.046875 L 415.039062 468.03125 L 406.808594 457.820312 C 403.101562 453.222656 396.101562 453.222656 392.394531 457.820312 L 384.164062 468.03125 L 391.328125 457.046875 C 394.554688 452.101562 392.390625 445.445312 386.875 443.339844 L 374.621094 438.667969 L 387.28125 442.085938 C 392.980469 443.625 398.648438 439.511719 398.941406 433.617188 Z M 399.601562 420.515625 " fill-opacity="1" fill-rule="nonzero"/><path fill="#ffffff" d="M 241.476562 183.582031 L 241.03125 174.710938 L 240.582031 183.582031 C 240.289062 189.476562 234.625 193.59375 228.921875 192.050781 L 220.351562 189.734375 L 228.648438 192.902344 C 234.164062 195.003906 236.328125 201.664062 233.101562 206.605469 L 228.25 214.046875 L 233.824219 207.132812 C 237.527344 202.535156 244.53125 202.535156 248.234375 207.132812 L 253.808594 214.046875 L 248.957031 206.605469 C 245.730469 201.664062 247.894531 195.003906 253.410156 192.902344 L 261.707031 189.734375 L 253.136719 192.050781 C 247.433594 193.59375 241.769531 189.476562 241.476562 183.582031 Z M 241.476562 183.582031 " fill-opacity="1" fill-rule="nonzero"/><path fill="#ffffff" d="M 255.464844 329.496094 C 255.699219 334.121094 260.140625 337.351562 264.613281 336.144531 C 260.285156 337.792969 258.589844 343.015625 261.117188 346.894531 C 258.214844 343.292969 252.71875 343.292969 249.8125 346.894531 C 252.34375 343.015625 250.648438 337.792969 246.320312 336.144531 C 250.789062 337.351562 255.234375 334.121094 255.464844 329.496094 Z M 255.464844 329.496094 " fill-opacity="1" fill-rule="nonzero"/><path fill="#ffffff" d="M 177.527344 764.195312 L 175.902344 731.886719 L 174.277344 764.195312 C 173.980469 770.09375 168.316406 774.207031 162.617188 772.667969 L 131.386719 764.226562 L 161.613281 775.757812 C 167.128906 777.859375 169.292969 784.519531 166.066406 789.464844 L 148.390625 816.554688 L 168.695312 791.375 C 172.402344 786.777344 179.402344 786.777344 183.105469 791.375 L 203.410156 816.554688 L 185.734375 789.464844 C 182.511719 784.519531 184.671875 777.859375 190.1875 775.757812 L 220.414062 764.226562 L 189.183594 772.667969 C 183.488281 774.207031 177.820312 770.09375 177.527344 764.195312 Z M 177.527344 764.195312 " fill-opacity="1" fill-rule="nonzero"/><path fill="#ffffff" d="M 579.355469 441.085938 L 580.179688 457.5 C 580.476562 463.394531 586.140625 467.511719 591.839844 465.96875 L 607.703125 461.683594 L 592.347656 467.539062 C 586.835938 469.644531 584.671875 476.304688 587.894531 481.246094 L 596.878906 495.011719 L 586.5625 482.21875 C 582.855469 477.621094 575.855469 477.621094 572.148438 482.21875 L 561.835938 495.011719 L 570.8125 481.246094 C 574.039062 476.304688 571.875 469.644531 566.359375 467.539062 L 551.003906 461.683594 L 566.871094 465.96875 C 572.570312 467.511719 578.234375 463.394531 578.527344 457.5 Z M 579.355469 441.085938 " fill-opacity="1" fill-rule="nonzero"/><path fill="#ffffff" d="M 247.035156 444.207031 L 246.402344 431.574219 L 245.765625 444.207031 C 245.46875 450.101562 239.804688 454.21875 234.105469 452.679688 L 221.894531 449.378906 L 233.710938 453.886719 C 239.226562 455.992188 241.394531 462.652344 238.167969 467.59375 L 231.253906 478.191406 L 239.195312 468.339844 C 242.898438 463.746094 249.902344 463.746094 253.605469 468.339844 L 261.546875 478.191406 L 254.632812 467.59375 C 251.410156 462.652344 253.574219 455.992188 259.085938 453.886719 L 270.910156 449.378906 L 258.695312 452.679688 C 252.996094 454.21875 247.332031 450.101562 247.035156 444.207031 Z M 247.035156 444.207031 " fill-opacity="1" fill-rule="nonzero"/><path fill="#ffffff" d="M 59.574219 375.007812 L 61.941406 422.125 C 62.238281 428.023438 67.902344 432.136719 73.601562 430.59375 L 119.148438 418.289062 L 75.066406 435.101562 C 69.550781 437.207031 67.386719 443.867188 70.613281 448.808594 L 96.390625 488.320312 L 66.777344 451.59375 C 63.074219 447 56.074219 447 52.367188 451.59375 L 22.753906 488.320312 L 48.535156 448.808594 C 51.761719 443.867188 49.597656 437.207031 44.082031 435.101562 L 0 418.289062 L 45.546875 430.597656 C 51.242188 432.136719 56.90625 428.023438 57.203125 422.125 Z M 59.574219 375.007812 " fill-opacity="1" fill-rule="nonzero"/><path fill="#ffffff" d="M 767.097656 709.945312 L 765.476562 677.636719 L 763.851562 709.945312 C 763.554688 715.839844 757.886719 719.953125 752.1875 718.417969 L 720.960938 709.976562 L 751.1875 721.503906 C 756.703125 723.609375 758.863281 730.265625 755.640625 735.210938 L 737.964844 762.304688 L 758.269531 737.121094 C 761.972656 732.527344 768.972656 732.527344 772.679688 737.121094 L 792.984375 762.304688 L 775.308594 735.210938 C 772.082031 730.265625 774.246094 723.609375 779.761719 721.503906 L 809.988281 709.976562 L 778.757812 718.417969 C 773.058594 719.953125 767.394531 715.839844 767.097656 709.945312 Z M 767.097656 709.945312 " fill-opacity="1" fill-rule="nonzero"/><path fill="#ffffff" d="M 390.117188 245.933594 L 390.941406 262.347656 C 391.238281 268.242188 396.902344 272.355469 402.601562 270.816406 L 418.464844 266.53125 L 403.109375 272.386719 C 397.59375 274.492188 395.433594 281.152344 398.65625 286.09375 L 407.636719 299.859375 L 397.324219 287.0625 C 393.617188 282.46875 386.617188 282.46875 382.910156 287.0625 L 372.59375 299.859375 L 381.574219 286.09375 C 384.800781 281.152344 382.636719 274.492188 377.121094 272.386719 L 361.765625 266.53125 L 377.632812 270.816406 C 383.328125 272.355469 388.996094 268.242188 389.289062 262.347656 Z M 390.117188 245.933594 " fill-opacity="1" fill-rule="nonzero"/><path fill="#ffffff" d="M 548.296875 109.277344 L 547.023438 83.949219 L 545.75 109.277344 C 545.453125 115.171875 539.789062 119.289062 534.089844 117.75 L 509.609375 111.132812 L 533.304688 120.171875 C 538.820312 122.273438 540.980469 128.933594 537.757812 133.878906 L 523.898438 155.117188 L 539.816406 135.375 C 543.523438 130.777344 550.527344 130.777344 554.230469 135.375 L 570.148438 155.117188 L 556.289062 133.878906 C 553.0625 128.933594 555.230469 122.273438 560.746094 120.171875 L 584.441406 111.132812 L 559.957031 117.75 C 554.257812 119.289062 548.59375 115.171875 548.296875 109.277344 Z M 548.296875 109.277344 " fill-opacity="1" fill-rule="nonzero"/><path fill="#ffffff" d="M 528.246094 560.644531 L 530.023438 596.078125 C 530.320312 601.972656 535.988281 606.089844 541.683594 604.550781 L 575.933594 595.296875 L 542.785156 607.9375 C 537.269531 610.042969 535.105469 616.699219 538.332031 621.644531 L 557.714844 651.355469 L 535.449219 623.738281 C 531.742188 619.144531 524.742188 619.144531 521.039062 623.738281 L 498.769531 651.355469 L 518.15625 621.644531 C 521.378906 616.699219 519.21875 610.042969 513.703125 607.9375 L 480.554688 595.296875 L 514.800781 604.550781 C 520.5 606.089844 526.164062 601.972656 526.460938 596.078125 Z M 528.246094 560.644531 " fill-opacity="1" fill-rule="nonzero"/><path fill="#ffffff" d="M 541.695312 620.855469 L 544.238281 613.992188 L 544.476562 614.082031 L 541.9375 620.941406 Z M 541.695312 620.855469 " fill-opacity="1" fill-rule="nonzero"/><path fill="#ffffff" d="M 399.769531 564.75 L 399.558594 560.53125 L 399.34375 564.75 C 399.046875 570.644531 393.382812 574.757812 387.6875 573.222656 L 383.609375 572.117188 L 387.554688 573.621094 C 393.070312 575.730469 395.230469 582.386719 392.007812 587.328125 L 389.703125 590.863281 L 392.351562 587.578125 C 396.054688 582.984375 403.054688 582.984375 406.761719 587.578125 L 409.414062 590.863281 L 407.105469 587.328125 C 403.878906 582.386719 406.042969 575.730469 411.558594 573.621094 L 415.503906 572.117188 L 411.429688 573.222656 C 405.730469 574.757812 400.066406 570.644531 399.769531 564.75 Z M 399.769531 564.75 " fill-opacity="1" fill-rule="nonzero"/><path fill="#ffffff" d="M 711.828125 500.222656 L 713.605469 535.652344 C 713.90625 541.550781 719.570312 545.667969 725.265625 544.125 L 759.515625 534.871094 L 726.367188 547.515625 C 720.851562 549.617188 718.691406 556.277344 721.914062 561.222656 L 741.296875 590.933594 L 719.03125 563.316406 C 715.328125 558.71875 708.324219 558.71875 704.621094 563.316406 L 682.355469 590.933594 L 701.738281 561.222656 C 704.960938 556.277344 702.800781 549.617188 697.285156 547.515625 L 664.136719 534.871094 L 698.386719 544.125 C 704.082031 545.667969 709.746094 541.550781 710.046875 535.652344 Z M 711.828125 500.222656 " fill-opacity="1" fill-rule="nonzero"/><path fill="#ffffff" d="M 35.914062 655.183594 L 34.949219 636.035156 L 33.988281 655.183594 C 33.691406 661.078125 28.027344 665.191406 22.328125 663.65625 L 3.820312 658.65625 L 21.734375 665.484375 C 27.25 667.589844 29.414062 674.25 26.1875 679.191406 L 15.710938 695.246094 L 27.746094 680.324219 C 31.449219 675.726562 38.453125 675.726562 42.15625 680.324219 L 54.1875 695.246094 L 43.714844 679.191406 C 40.488281 674.25 42.652344 667.589844 48.167969 665.484375 L 66.078125 658.65625 L 47.574219 663.65625 C 41.875 665.191406 36.210938 661.078125 35.914062 655.183594 Z M 35.914062 655.183594 " fill-opacity="1" fill-rule="nonzero"/><path fill="#ffffff" d="M 349.417969 677.636719 L 350.25 694.230469 C 350.550781 700.125 356.214844 704.242188 361.910156 702.703125 L 377.953125 698.367188 L 362.429688 704.289062 C 356.914062 706.390625 354.75 713.050781 357.972656 717.996094 L 367.054688 731.910156 L 356.625 718.972656 C 352.917969 714.378906 345.917969 714.378906 342.210938 718.972656 L 331.78125 731.910156 L 340.863281 717.996094 C 344.089844 713.050781 341.921875 706.390625 336.410156 704.289062 L 320.882812 698.367188 L 336.925781 702.703125 C 342.625 704.242188 348.289062 700.125 348.582031 694.230469 Z M 349.417969 677.636719 " fill-opacity="1" fill-rule="nonzero"/><path fill="#ffffff" d="M 693.3125 379.851562 L 692.488281 363.4375 L 691.660156 379.851562 C 691.367188 385.746094 685.703125 389.859375 680.003906 388.320312 L 664.136719 384.035156 L 679.492188 389.890625 C 685.007812 391.996094 687.171875 398.652344 683.945312 403.597656 L 674.964844 417.363281 L 685.28125 404.566406 C 688.988281 399.972656 695.988281 399.972656 699.695312 404.566406 L 710.007812 417.363281 L 701.027344 403.597656 C 697.804688 398.652344 699.964844 391.996094 705.480469 389.890625 L 720.835938 384.035156 L 704.972656 388.320312 C 699.273438 389.859375 693.609375 385.746094 693.3125 379.851562 Z M 693.3125 379.851562 " fill-opacity="1" fill-rule="nonzero"/><path fill="#ffffff" d="M 715.6875 155.171875 L 717.273438 186.378906 C 717.574219 192.261719 723.21875 196.371094 728.910156 194.851562 L 759.527344 186.667969 L 730.035156 197.792969 C 724.480469 199.886719 722.308594 206.597656 725.574219 211.550781 L 742.78125 237.628906 L 722.863281 213.199219 C 719.160156 208.65625 712.21875 208.65625 708.515625 213.199219 L 688.597656 237.628906 L 705.800781 211.550781 C 709.070312 206.59375 706.898438 199.886719 701.339844 197.792969 L 671.851562 186.667969 L 702.46875 194.851562 C 708.15625 196.371094 713.804688 192.261719 714.101562 186.378906 Z M 715.6875 155.171875 " fill-opacity="1" fill-rule="nonzero"/></svg>