<svg xmlns="http://www.w3.org/2000/svg" xmlns:xlink="http://www.w3.org/1999/xlink" width="1080" zoomAndPan="magnify" viewBox="0 0 810 809.999993" height="1080" preserveAspectRatio="xMidYMid meet" version="1.0"><defs><filter x="0%" y="0%" width="100%" height="100%" id="6b25930fbf"><feColorMatrix values="0 0 0 0 1 0 0 0 0 1 0 0 0 0 1 0 0 0 1 0" color-interpolation-filters="sRGB"/></filter><clipPath id="ccbfe7462b"><path d="M 247 0.00390625 L 332 0.00390625 L 332 81 L 247 81 Z M 247 0.00390625 " clip-rule="nonzero"/></clipPath><clipPath id="6d18eab57b"><path d="M 731 677.050781 L 809.851562 677.050781 L 809.851562 752.253906 L 731 752.253906 Z M 731 677.050781 " clip-rule="nonzero"/></clipPath><clipPath id="a76ee9cdd2"><path d="M 731 676 L 809.851562 676 L 809.851562 752.253906 L 731 752.253906 Z M 731 676 " clip-rule="nonzero"/></clipPath><clipPath id="d5f55fb742"><path d="M 0.222656 43 L 81 43 L 81 120 L 0.222656 120 Z M 0.222656 43 " clip-rule="nonzero"/></clipPath><clipPath id="938ad490f5"><path d="M 0.222656 42.1875 L 82 42.1875 L 82 121 L 0.222656 121 Z M 0.222656 42.1875 " clip-rule="nonzero"/></clipPath><mask id="808deae5df"><g filter="url(#6b25930fbf)"><rect x="-81" width="972" fill="#000000" y="-80.999999" height="971.999992" fill-opacity="0.4"/></g></mask><clipPath id="0382fc902f"><path d="M 0 0 L 810 0 L 810 810 L 0 810 Z M 0 0 " clip-rule="nonzero"/></clipPath><clipPath id="b0b98e1c85"><rect x="0" width="810" y="0" height="810"/></clipPath></defs><path fill="#ffffff" d="M 516.378906 54.257812 C 479.527344 61.0625 476.445312 59.398438 463.402344 25.660156 C 470.503906 60.996094 468.765625 63.945312 433.578125 76.460938 C 470.429688 69.65625 473.511719 71.3125 486.554688 105.058594 C 479.453125 69.722656 481.191406 66.765625 516.378906 54.257812 " fill-opacity="1" fill-rule="nonzero"/><path fill="#ffffff" d="M 467.792969 49.140625 C 467.792969 61.707031 461.894531 66.75 444.726562 73.472656 C 468.386719 69.855469 474.445312 73.207031 483.53125 94.679688 C 479.691406 71.808594 483.0625 65.925781 505.234375 57.25 C 481.570312 60.867188 475.515625 57.511719 466.425781 36.042969 C 467.292969 41.199219 467.792969 45.492188 467.792969 49.140625 Z M 433.222656 75.464844 C 468.023438 63.097656 469.382812 60.773438 462.363281 25.867188 L 464.382812 25.28125 C 477.285156 58.648438 479.707031 59.960938 516.183594 53.21875 L 516.726562 55.253906 C 481.941406 67.621094 480.574219 69.9375 487.59375 104.855469 L 485.574219 105.4375 C 472.671875 72.0625 470.25 70.761719 433.769531 77.5 L 433.222656 75.464844 " fill-opacity="1" fill-rule="nonzero"/><path fill="#ffffff" d="M 354.582031 274.058594 C 318.25 283.03125 315.058594 281.554688 299.875 248.640625 C 309.226562 283.492188 307.6875 286.546875 273.371094 301.105469 C 309.714844 292.140625 312.894531 293.617188 328.085938 326.523438 C 318.726562 291.671875 320.265625 288.625 354.582031 274.058594 " fill-opacity="1" fill-rule="nonzero"/><path fill="#ffffff" d="M 305.839844 274.066406 C 305.839844 285.03125 299.976562 290.222656 284.289062 297.472656 C 307.6875 292.457031 313.949219 295.4375 324.394531 316.324219 C 319.089844 293.742188 322.089844 287.667969 343.675781 277.699219 C 320.277344 282.707031 314.015625 279.726562 303.566406 258.839844 C 305.015625 265.011719 305.839844 269.945312 305.839844 274.066406 Z M 272.960938 300.132812 C 306.886719 285.742188 308.097656 283.351562 298.863281 248.921875 L 300.832031 248.203125 C 315.851562 280.753906 318.355469 281.917969 354.335938 273.035156 L 354.996094 275.03125 C 321.074219 289.421875 319.863281 291.820312 329.101562 326.25 L 327.121094 326.96875 C 312.101562 294.417969 309.605469 293.253906 273.625 302.128906 L 272.960938 300.132812 " fill-opacity="1" fill-rule="nonzero"/><g clip-path="url(#ccbfe7462b)"><path fill="#ffffff" d="M 331.167969 50.691406 C 295.773438 38.734375 293.976562 35.8125 300.476562 0.367188 C 288.011719 34.3125 284.964844 36.023438 247.996094 29.796875 C 283.398438 41.75 285.179688 44.675781 278.683594 80.121094 C 291.152344 46.175781 294.207031 44.46875 331.167969 50.691406 " fill-opacity="1" fill-rule="nonzero"/><path fill="#ffffff" d="M 297.625 10.796875 C 288.910156 32.410156 282.921875 35.851562 259.191406 32.613281 C 281.511719 40.945312 284.980469 46.769531 281.535156 69.691406 C 290.253906 48.078125 296.242188 44.636719 319.972656 47.882812 C 297.652344 39.542969 294.183594 33.726562 297.625 10.796875 Z M 247.65625 30.792969 L 248.175781 28.757812 C 284.765625 34.921875 287.164062 33.578125 299.488281 0.00390625 L 301.515625 0.554688 C 295.097656 35.570312 296.5 37.871094 331.496094 49.695312 L 330.988281 51.738281 C 294.398438 45.566406 292 46.910156 279.675781 80.484375 L 277.648438 79.929688 C 284.066406 44.914062 282.664062 42.617188 247.65625 30.792969 " fill-opacity="1" fill-rule="nonzero"/></g><path fill="#ffffff" d="M 769.84375 521.203125 C 733.484375 512.289062 731.433594 509.527344 734.648438 473.671875 C 725.351562 508.539062 722.46875 510.5 685.082031 507.417969 C 721.441406 516.332031 723.484375 519.101562 720.269531 554.957031 C 729.570312 520.089844 732.457031 518.128906 769.84375 521.203125 " fill-opacity="1" fill-rule="nonzero"/><path fill="#ffffff" d="M 732.769531 484.285156 C 726.078125 506.554688 720.425781 510.5 696.5 509.28125 C 719.496094 515.691406 723.484375 521.1875 722.148438 544.335938 C 728.847656 522.066406 734.5 518.121094 758.425781 519.347656 C 735.429688 512.9375 731.433594 507.417969 732.769531 484.285156 Z M 684.824219 508.449219 L 685.164062 506.371094 C 722.171875 509.414062 724.4375 507.871094 733.625 473.398438 L 735.703125 473.761719 C 732.53125 509.191406 734.128906 511.355469 770.089844 520.179688 L 769.753906 522.257812 C 732.742188 519.207031 730.484375 520.75 721.292969 555.230469 L 719.222656 554.859375 C 722.394531 519.429688 720.789062 517.265625 684.824219 508.449219 " fill-opacity="1" fill-rule="nonzero"/><g clip-path="url(#6d18eab57b)"><path fill="#ffffff" d="M 809.332031 697.21875 C 774.1875 709.824219 770.855469 708.679688 752.128906 677.496094 C 765.269531 711.199219 764.078125 714.390625 731.558594 732.359375 C 766.714844 719.746094 770.035156 720.890625 788.769531 752.074219 C 775.621094 718.367188 776.820312 715.179688 809.332031 697.21875 " fill-opacity="1" fill-rule="nonzero"/></g><g clip-path="url(#a76ee9cdd2)"><path fill="#ffffff" d="M 761.027344 705.039062 C 761.027344 714.160156 755.457031 719.636719 741.988281 727.636719 C 764.71875 720.273438 771.277344 722.585938 783.957031 742.285156 C 776.210938 720.371094 778.535156 714.042969 798.902344 701.933594 C 776.171875 709.296875 769.621094 706.984375 756.933594 687.292969 C 759.5625 694.714844 761.027344 700.359375 761.027344 705.039062 Z M 731.046875 731.4375 C 763.195312 713.671875 764.132812 711.175781 751.140625 677.882812 L 753.027344 676.953125 C 771.566406 707.808594 774.175781 708.714844 808.980469 696.222656 L 809.84375 698.140625 C 777.703125 715.898438 776.765625 718.402344 789.75 751.695312 L 787.863281 752.617188 C 769.332031 721.761719 766.722656 720.867188 731.917969 733.347656 L 731.046875 731.4375 " fill-opacity="1" fill-rule="nonzero"/></g><path fill="#ffffff" d="M 534.480469 262.054688 C 501.070312 245.667969 499.710938 242.535156 511.089844 208.246094 C 494.003906 240.277344 490.738281 241.578125 454.984375 230.671875 C 488.390625 247.058594 489.75 250.1875 478.367188 284.480469 C 495.460938 252.4375 498.722656 251.136719 534.480469 262.054688 " fill-opacity="1" fill-rule="nonzero"/><path fill="#ffffff" d="M 506.804688 218.238281 C 495.15625 238.523438 488.738281 241.160156 465.652344 234.882812 C 486.621094 246.011719 489.257812 252.234375 482.65625 274.484375 C 494.308594 254.195312 500.726562 251.566406 523.8125 257.835938 C 502.84375 246.710938 500.207031 240.492188 506.804688 218.238281 Z M 454.511719 231.617188 L 455.289062 229.65625 C 490.691406 240.46875 493.253906 239.445312 510.167969 207.742188 L 512.09375 208.574219 C 500.847656 242.445312 501.921875 244.898438 534.941406 261.105469 L 534.175781 263.058594 C 498.773438 252.257812 496.203125 253.277344 479.296875 284.972656 L 477.367188 284.148438 C 488.605469 250.28125 487.542969 247.816406 454.511719 231.617188 " fill-opacity="1" fill-rule="nonzero"/><path fill="#ffffff" d="M 417.683594 480.121094 C 380.421875 484.339844 377.472656 482.46875 367.015625 447.90625 C 371.421875 483.648438 369.460938 486.476562 333.425781 496.492188 C 370.691406 492.273438 373.640625 494.144531 384.09375 528.714844 C 379.6875 492.976562 381.648438 490.148438 417.683594 480.121094 " fill-opacity="1" fill-rule="nonzero"/><path fill="#ffffff" d="M 369.75 467.863281 C 369.75 483.292969 364.074219 488.261719 344.769531 494.292969 C 368.648438 492.332031 374.429688 496.097656 381.863281 518.152344 C 379.769531 495.078125 383.566406 489.441406 406.332031 482.332031 C 382.464844 484.285156 376.679688 480.519531 369.25 458.460938 C 369.5625 461.980469 369.75 465.09375 369.75 467.863281 Z M 333.144531 495.480469 C 368.785156 485.570312 370.320312 483.351562 365.96875 448.039062 L 368.019531 447.601562 C 378.359375 481.785156 380.675781 483.253906 417.570312 479.078125 L 417.964844 481.136719 C 382.324219 491.046875 380.792969 493.28125 385.140625 528.585938 L 383.082031 529.011719 C 372.75 494.835938 370.433594 493.363281 333.539062 497.546875 L 333.144531 495.480469 " fill-opacity="1" fill-rule="nonzero"/><path fill="#ffffff" d="M 616.367188 496.105469 C 587.0625 473.621094 586.386719 470.292969 604.703125 438.886719 C 581.261719 466.988281 577.792969 467.640625 545.042969 450.074219 C 574.347656 472.550781 575.023438 475.878906 556.703125 507.285156 C 580.148438 479.183594 583.617188 478.539062 616.367188 496.105469 " fill-opacity="1" fill-rule="nonzero"/><path fill="#ffffff" d="M 598.375 447.90625 C 582.738281 465.515625 575.890625 466.824219 554.566406 456.230469 C 572.808594 471.167969 574.125 477.765625 563.027344 498.265625 C 578.667969 480.667969 585.511719 479.347656 606.851562 489.953125 C 588.59375 475.015625 587.285156 468.40625 598.375 447.90625 Z M 544.402344 450.90625 L 545.539062 449.144531 C 577.964844 466.535156 580.691406 466.027344 603.894531 438.210938 L 605.617188 439.421875 C 587.515625 470.441406 588.050781 473.054688 617.011719 495.265625 L 615.875 497.027344 C 583.445312 479.636719 580.71875 480.148438 557.515625 507.96875 L 555.796875 506.757812 C 573.886719 475.738281 573.359375 473.128906 544.402344 450.90625 " fill-opacity="1" fill-rule="nonzero"/><path fill="#ffffff" d="M 708.308594 336.1875 C 671.320312 342.261719 668.273438 340.539062 655.964844 306.542969 C 662.300781 342.011719 660.496094 344.929688 625.050781 356.734375 C 662.035156 350.664062 665.085938 352.386719 677.394531 386.386719 C 671.058594 350.910156 672.863281 347.992188 708.308594 336.1875 " fill-opacity="1" fill-rule="nonzero"/><path fill="#ffffff" d="M 659.851562 329.191406 C 659.851562 342.433594 653.988281 347.433594 636.257812 353.96875 C 659.992188 350.828125 665.976562 354.296875 674.59375 375.941406 C 671.246094 353.003906 674.742188 347.1875 697.101562 338.957031 C 673.355469 342.09375 667.382812 338.632812 658.765625 316.984375 C 659.457031 321.726562 659.851562 325.742188 659.851562 329.191406 Z M 624.714844 355.730469 C 659.769531 344.054688 661.179688 341.765625 654.925781 306.726562 L 656.953125 306.179688 C 669.128906 339.804688 671.519531 341.15625 708.132812 335.148438 L 708.644531 337.183594 C 673.585938 348.859375 672.171875 351.148438 678.433594 386.199219 L 676.398438 386.742188 C 664.226562 353.117188 661.832031 351.765625 625.214844 357.773438 L 624.714844 355.730469 " fill-opacity="1" fill-rule="nonzero"/><path fill="#ffffff" d="M 146.484375 424.253906 C 131.957031 391.074219 133.019531 387.835938 164.78125 368.664062 C 130.179688 382.589844 126.800781 381.566406 106.804688 351.117188 C 121.328125 384.296875 120.265625 387.53125 88.503906 406.703125 C 123.109375 392.78125 126.488281 393.8125 146.484375 424.253906 " fill-opacity="1" fill-rule="nonzero"/><path fill="#ffffff" d="M 116.847656 379.171875 C 116.847656 387.789062 111.425781 393.375 98.722656 401.605469 C 121.140625 393.382812 127.789062 395.449219 141.277344 414.648438 C 132.632812 393.054688 134.691406 386.636719 154.558594 373.765625 C 132.140625 381.988281 125.5 379.929688 112.011719 360.722656 C 115.125 368.507812 116.847656 374.324219 116.847656 379.171875 Z M 87.960938 405.808594 C 119.34375 386.847656 120.183594 384.3125 105.839844 351.535156 L 107.683594 350.53125 C 127.476562 380.667969 130.128906 381.46875 164.386719 367.683594 L 165.324219 369.5625 C 133.933594 388.511719 133.101562 391.050781 147.445312 423.832031 L 145.601562 424.839844 C 125.8125 394.699219 123.160156 393.902344 88.902344 407.683594 L 87.960938 405.808594 " fill-opacity="1" fill-rule="nonzero"/><g clip-path="url(#d5f55fb742)"><path fill="#ffffff" d="M 80.660156 66.351562 C 44.730469 76.75 41.484375 75.398438 24.910156 43.117188 C 35.75 77.566406 34.34375 80.679688 0.675781 96.582031 C 36.597656 86.183594 39.847656 87.535156 56.429688 119.816406 C 45.589844 85.367188 46.996094 82.253906 80.660156 66.351562 " fill-opacity="1" fill-rule="nonzero"/></g><g clip-path="url(#938ad490f5)"><path fill="#ffffff" d="M 31.984375 69.507812 C 31.984375 79.660156 26.203125 84.957031 11.414062 92.519531 C 34.589844 86.589844 40.972656 89.316406 52.304688 109.765625 C 46.050781 87.421875 48.777344 81.234375 69.917969 70.414062 C 46.742188 76.347656 40.363281 73.628906 29.027344 53.171875 C 30.914062 59.894531 31.984375 65.148438 31.984375 69.507812 Z M 0.222656 95.632812 C 33.511719 79.90625 34.613281 77.46875 23.894531 43.433594 L 25.839844 42.632812 C 42.25 74.566406 44.796875 75.628906 80.363281 65.339844 L 81.113281 67.300781 C 47.828125 83.027344 46.726562 85.46875 57.4375 119.503906 L 55.492188 120.300781 C 39.085938 88.367188 36.542969 87.304688 0.964844 97.59375 L 0.222656 95.632812 " fill-opacity="1" fill-rule="nonzero"/></g><g mask="url(#808deae5df)"><g transform="matrix(1, 0, 0, 1, 0, 0.000000000000039746)"><g clip-path="url(#b0b98e1c85)"><g clip-path="url(#0382fc902f)"><path fill="#18216d" d="M 1.367188 -15.800781 C -3.921875 -12.179688 -8.804688 -7.730469 -11.050781 -1.792969 C -12.5 2.152344 -14.667969 4.6875 -16.839844 6.242188 C -19.015625 7.691406 -21.980469 8.414062 -25.132812 8.414062 C -31.464844 8.363281 -39.355469 5.519531 -48.003906 2.769531 C -52.382812 1.320312 -56.113281 0.960938 -59.1875 1.683594 C -62.085938 2.40625 -64.691406 4.214844 -66.394531 6.496094 C -69.648438 11.382812 -70.449219 19.164062 -68.929688 28.46875 C -68.203125 32.992188 -68.570312 35.707031 -69.648438 37.660156 C -70.738281 39.472656 -72.546875 40.917969 -74.898438 42.292969 C -79.386719 45.191406 -85.214844 48.699219 -88.078125 60.136719 C -90.972656 72.480469 -102.445312 80.660156 -114.167969 81.636719 C -117.792969 81.929688 -121.410156 81.585938 -124.886719 80.550781 L -124.886719 81.636719 C -121.269531 82.722656 -117.679688 83.085938 -114.0625 82.722656 C -101.867188 81.636719 -90.210938 73.242188 -86.988281 60.390625 C -84.089844 49.246094 -78.808594 46.058594 -74.285156 43.234375 C -72.109375 41.789062 -69.941406 40.339844 -68.675781 38.238281 C -67.226562 36.070312 -66.859375 32.957031 -67.949219 28.285156 C -69.765625 19.164062 -69.035156 11.636719 -65.777344 7.148438 C -64.332031 4.976562 -62.046875 3.382812 -59.226562 2.730469 C -56.332031 2.007812 -52.855469 2.378906 -48.582031 3.820312 C -39.933594 6.714844 -32.042969 9.390625 -25.386719 9.5 C -22.121094 9.546875 -19.015625 8.777344 -16.441406 7.328125 C -13.90625 5.519531 -11.773438 2.839844 -10.21875 -1.25 C -8.050781 -7.402344 -2.472656 -12.179688 3.25 -15.65625 Z M 85.253906 -15.800781 C 76.457031 -10.007812 68.320312 -2.371094 64.589844 7.546875 C 62.054688 14.132812 58.832031 18.367188 54.921875 20.9375 C 51.015625 23.472656 46.382812 24.558594 41.097656 24.558594 C 30.527344 24.367188 17.429688 19.742188 2.988281 15.183594 C -4.320312 13.011719 -10.507812 12.289062 -15.652344 13.734375 C -20.753906 14.820312 -24.808594 17.714844 -27.632812 21.769531 C -33.3125 29.914062 -34.359375 42.875 -31.574219 58.351562 C -30.128906 65.917969 -30.855469 70.441406 -32.664062 73.703125 C -34.472656 76.957031 -37.625 79.023438 -41.347656 81.375 C -48.84375 86.117188 -58.542969 92.015625 -63.285156 111.054688 C -68.429688 131.613281 -87.171875 145.257812 -106.757812 146.851562 C -112.761719 147.214844 -118.847656 146.695312 -124.632812 144.679688 L -124.632812 146.488281 C -118.773438 148.300781 -112.65625 149.023438 -106.609375 148.660156 C -86.304688 146.851562 -66.851562 132.878906 -61.519531 111.480469 C -56.882812 92.914062 -47.867188 87.628906 -40.378906 82.886719 C -36.613281 80.355469 -33.171875 78.289062 -31.039062 74.5625 C -28.871094 70.832031 -28.148438 65.765625 -29.589844 57.984375 C -32.488281 42.78125 -31.039062 30.222656 -25.972656 22.765625 C -23.4375 19.039062 -19.820312 16.503906 -15.078125 15.457031 C -10.375 14.367188 -4.472656 14.730469 2.621094 16.902344 C 17.023438 21.464844 30.203125 26.167969 41.265625 26.386719 C 46.804688 26.433594 51.835938 25.300781 56.109375 22.585938 C 60.378906 19.691406 63.890625 15.128906 66.460938 8.289062 C 70.332031 -1.992188 79.347656 -9.882812 88.867188 -15.710938 Z M 199.328125 -15.800781 C 185.714844 -6.894531 173.230469 4.9375 167.4375 20.214844 C 163.601562 30.347656 158.570312 36.902344 152.523438 40.917969 C 146.480469 44.9375 139.351562 46.492188 131.207031 46.347656 C 114.921875 46.058594 94.671875 38.890625 72.394531 31.871094 C 61.105469 28.25 51.546875 27.5625 43.621094 29.335938 C 35.726562 31.144531 29.503906 35.453125 25.121094 41.75 C 16.367188 54.3125 14.738281 74.363281 19.082031 98.222656 C 21.25 109.878906 20.164062 116.863281 17.273438 121.859375 C 14.378906 126.855469 9.59375 130.074219 3.839844 133.730469 C -7.703125 141.042969 -22.6875 150.164062 -30 179.554688 C -37.925781 211.261719 -66.886719 232.359375 -97.085938 234.835938 C -106.355469 235.558594 -115.730469 234.644531 -124.667969 231.578125 L -124.667969 234.476562 C -115.617188 237.371094 -106.207031 238.382812 -96.871094 237.730469 C -65.523438 235.199219 -35.503906 213.335938 -27.273438 180.328125 C -20.109375 151.664062 -6.246094 143.53125 5.339844 136.203125 C 11.125 132.546875 16.449219 129.074219 19.738281 123.355469 C 23.003906 117.632812 24.085938 109.816406 21.914062 97.800781 C 17.640625 74.34375 19.378906 54.945312 27.523438 43.425781 C 31.542969 37.671875 37.042969 33.835938 44.316406 32.167969 C 51.597656 30.359375 60.679688 31.082031 71.609375 34.703125 C 89.09375 40.207031 105.347656 45.851562 119.824219 48.167969 C 118.375 48.359375 116.929688 48.457031 115.523438 48.894531 C 104.226562 51.425781 95.359375 57.652344 89.132812 66.59375 C 76.640625 84.507812 74.296875 113.09375 80.484375 147.148438 C 83.375 163.761719 81.925781 173.753906 77.949219 180.882812 C 73.859375 188.015625 67.019531 192.609375 58.769531 197.824219 C 42.296875 208.246094 20.925781 221.277344 10.46875 263.210938 C -0.820312 308.46875 -42.152344 338.496094 -85.230469 342.03125 C -98.441406 343.117188 -111.828125 341.746094 -124.566406 337.503906 L -124.566406 341.597656 C -111.679688 345.722656 -98.222656 347.132812 -84.902344 346.050781 C -40.179688 342.390625 2.625 311.261719 14.367188 264.179688 C 24.578125 223.289062 44.375 211.660156 60.90625 201.203125 C 69.160156 195.953125 76.761719 191.066406 81.46875 182.886719 C 86.136719 174.707031 87.65625 163.5625 84.363281 146.421875 C 78.28125 112.941406 81.105469 85.289062 92.363281 68.859375 C 98.078125 60.640625 105.96875 55.140625 116.320312 52.785156 C 126.671875 50.617188 139.636719 51.339844 155.277344 56.40625 C 170.769531 61.292969 185.539062 66.25 199.519531 70.125 C 198.433594 70.316406 197.351562 70.480469 196.261719 70.847656 C 181.171875 74.105469 169.339844 82.539062 160.972656 94.519531 C 144.292969 118.445312 141.105469 156.679688 149.394531 202.203125 C 153.449219 224.425781 151.199219 237.785156 145.773438 247.3125 C 140.308594 256.867188 131.148438 262.988281 120.140625 269.9375 C 98.136719 283.871094 69.5625 301.28125 55.589844 357.339844 C 40.488281 417.84375 -14.769531 457.984375 -72.355469 462.710938 C -90.0625 464.15625 -107.902344 462.347656 -124.9375 456.703125 L -124.9375 462.167969 C -107.710938 467.667969 -89.714844 469.585938 -71.910156 468.105469 C -12.125 463.183594 45.101562 421.609375 60.796875 358.664062 C 74.4375 304.003906 100.929688 288.476562 123.019531 274.5 C 134.058594 267.511719 144.191406 260.925781 150.453125 249.996094 C 156.71875 239.0625 158.78125 224.152344 154.621094 201.238281 C 146.472656 156.488281 150.023438 119.53125 165.332031 97.570312 C 173.003906 86.601562 183.503906 79.214844 197.367188 76.070312 C 203.554688 74.621094 210.5 74.257812 218.066406 74.621094 C 224.148438 75.707031 229.976562 76.792969 235.625 76.792969 C 240.074219 77.878906 244.640625 78.964844 249.449219 80.449219 C 264.253906 85.117188 278.445312 89.679688 292.265625 93.875 C 290.457031 94.167969 288.648438 94.601562 286.875 94.960938 C 267.542969 99.34375 252.339844 109.945312 241.621094 125.292969 C 220.234375 155.988281 216.179688 205.007812 226.785156 263.386719 C 231.964844 291.871094 229.316406 308.988281 222.222656 321.234375 C 215.203125 333.464844 203.476562 341.359375 189.359375 350.261719 C 161.164062 368.105469 124.507812 390.449219 106.585938 462.324219 C 87.253906 539.90625 16.367188 591.40625 -57.476562 597.464844 C -80.132812 599.273438 -103.089844 597.101562 -124.914062 589.71875 L -124.914062 596.738281 C -102.828125 603.796875 -79.726562 606.222656 -56.917969 604.378906 C 19.746094 598.078125 93.132812 544.765625 113.261719 464.050781 C 130.742188 393.953125 164.71875 374.039062 193.039062 356.113281 C 207.195312 347.136719 220.195312 338.738281 228.226562 324.730469 C 236.257812 310.726562 238.867188 291.578125 233.546875 262.199219 C 223.125 204.808594 227.609375 157.421875 247.265625 129.257812 C 257.074219 115.179688 270.574219 105.730469 288.34375 101.710938 C 295.332031 100.265625 303.039062 99.542969 311.398438 99.542969 C 327.214844 103.8125 342.128906 106.851562 356.046875 107.832031 C 365.167969 110.726562 373.964844 113.546875 382.796875 116.371094 C 379.539062 116.734375 376.386719 117.457031 373.347656 118.179688 C 349.964844 123.46875 331.5625 136.351562 318.609375 154.917969 C 292.695312 192.058594 287.804688 251.371094 300.660156 322.011719 C 306.917969 356.46875 303.550781 377.199219 295.15625 392.011719 C 286.648438 406.8125 272.460938 416.332031 255.40625 427.121094 C 221.273438 448.730469 176.917969 475.75 155.234375 562.722656 C 131.816406 656.59375 46.085938 718.910156 -43.269531 726.246094 C -70.710938 728.414062 -98.457031 725.519531 -124.863281 716.871094 L -124.863281 725.339844 C -98.152344 733.847656 -70.195312 736.816406 -42.589844 734.566406 C 50.167969 726.964844 138.964844 662.425781 163.316406 564.757812 C 184.457031 479.941406 225.570312 455.84375 259.84375 434.152344 C 276.96875 423.292969 292.746094 413.121094 302.445312 396.183594 C 312.144531 379.246094 315.335938 356.089844 308.855469 320.527344 C 296.222656 251.089844 301.691406 193.730469 325.46875 159.644531 C 337.339844 142.597656 353.664062 131.199219 375.171875 126.3125 C 384.765625 124.140625 395.476562 123.414062 407.207031 124.140625 C 430.515625 131.308594 452.8125 137.460938 473.40625 140.753906 C 470.148438 141.117188 466.890625 141.839844 463.742188 142.5625 C 436.089844 148.824219 414.367188 164.027344 399.066406 185.957031 C 368.445312 229.84375 362.667969 299.90625 377.855469 383.363281 C 385.273438 424.085938 381.472656 448.558594 371.339844 466.054688 C 361.3125 483.539062 344.554688 494.796875 324.378906 507.5625 C 284.050781 533.078125 231.644531 565.015625 206.019531 667.761719 C 178.367188 778.664062 77.066406 852.273438 -28.503906 860.9375 C -60.933594 863.472656 -93.691406 860.214844 -124.894531 849.902344 L -124.894531 859.925781 C -93.332031 869.988281 -60.296875 873.496094 -27.6875 870.820312 C 81.90625 861.839844 186.8125 785.585938 215.574219 670.195312 C 240.546875 569.992188 289.128906 541.519531 329.625 515.894531 C 349.859375 503.085938 368.46875 491.066406 379.949219 471.035156 C 391.421875 451.019531 395.183594 423.667969 387.511719 381.640625 C 372.597656 299.605469 379.042969 231.855469 407.128906 191.59375 C 421.171875 171.46875 440.429688 157.96875 465.84375 152.214844 C 477.785156 149.679688 491.144531 148.59375 505.898438 149.679688 C 540.898438 160.71875 573.742188 170.09375 603.875 174.363281 C 664.875 193.871094 721.191406 210.964844 769.714844 211.816406 C 799.539062 212.175781 826.722656 206.640625 849.863281 191.257812 C 872.988281 175.875 891.816406 151.019531 905.71875 114.175781 C 926.601562 58.785156 975.253906 16.132812 1026.695312 -15.273438 L 1007.945312 -15.273438 C 960.417969 15.894531 916.683594 57.207031 896.503906 110.679688 C 883.109375 146.152344 865.484375 168.980469 844.367188 183.019531 C 823.265625 197.0625 798.316406 202.492188 769.832031 201.988281 C 733.167969 201.261719 690.753906 190.691406 644.457031 176.6875 C 664.945312 175.597656 683.769531 170.460938 700.15625 159.5625 C 719.742188 146.535156 735.664062 125.503906 747.429688 94.328125 C 765.132812 47.445312 806.285156 11.332031 849.828125 -15.246094 L 833.976562 -15.246094 C 793.742188 11.140625 756.722656 46.09375 739.640625 91.355469 C 728.3125 121.363281 713.398438 140.714844 695.515625 152.597656 C 677.632812 164.46875 656.53125 169.066406 632.421875 168.667969 C 626.703125 168.621094 620.804688 168.304688 614.757812 167.582031 C 598.289062 162.367188 581.53125 156.9375 564.265625 151.511719 C 550.222656 147.09375 536.972656 143.945312 524.460938 141.992188 C 536.1875 139.820312 547.121094 135.910156 556.964844 129.359375 C 573.144531 118.609375 586.320312 101.199219 596.035156 75.429688 C 610.660156 36.6875 644.675781 6.851562 680.660156 -15.117188 L 667.558594 -15.117188 C 634.292969 6.675781 603.703125 35.59375 589.585938 73.003906 C 580.214844 97.796875 567.90625 113.773438 553.125 123.59375 C 538.355469 133.402344 520.910156 137.203125 500.988281 136.875 C 497.730469 136.824219 494.074219 136.523438 490.5625 136.152344 C 479.960938 132.894531 469.390625 129.382812 458.421875 125.945312 C 437.863281 119.46875 419.28125 116.136719 402.546875 115.808594 C 394.367188 113.277344 385.898438 110.636719 377.425781 107.917969 C 388.105469 106.472656 398.023438 103.394531 406.816406 97.570312 C 419.449219 89.171875 429.695312 75.632812 437.296875 55.523438 C 448.695312 25.300781 475.238281 2.039062 503.300781 -15.089844 L 493.09375 -15.089844 C 467.179688 1.921875 443.304688 24.441406 432.296875 53.617188 C 424.984375 72.945312 415.390625 85.433594 403.847656 93.070312 C 392.335938 100.710938 378.765625 103.679688 363.25 103.425781 C 361.078125 102.703125 359.265625 101.976562 357.207031 101.613281 C 338.566406 95.714844 321.878906 93.070312 307.039062 93.289062 C 290.101562 88.511719 272.148438 82.648438 253.324219 76.675781 C 260.378906 75.589844 266.972656 73.058594 272.871094 69.328125 C 282.316406 63.066406 289.992188 52.933594 295.671875 37.875 C 304.210938 15.253906 324.050781 -2.140625 345.046875 -14.957031 L 337.410156 -14.957031 C 318.011719 -2.25 300.164062 14.613281 291.933594 36.445312 C 286.464844 50.921875 279.265625 60.226562 270.652344 65.980469 C 262.542969 71.375 253.023438 73.546875 242.238281 73.652344 C 231.492188 70.757812 221.640625 69.5625 212.660156 69.636719 C 195.472656 65.691406 176.617188 59.5 156.34375 53.09375 C 150.550781 51.285156 145.230469 50.199219 140.09375 49.332031 C 145.089844 48.605469 149.757812 46.796875 153.957031 44.15625 C 160.578125 39.738281 165.972656 32.644531 169.917969 22.109375 C 175.886719 6.257812 189.828125 -5.941406 204.523438 -14.914062 Z M 199.328125 -15.800781 " fill-opacity="1" fill-rule="nonzero"/></g></g></g></g></svg>