<svg xmlns="http://www.w3.org/2000/svg" xmlns:xlink="http://www.w3.org/1999/xlink" width="1080" zoomAndPan="magnify" viewBox="0 0 810 809.999993" height="1080" preserveAspectRatio="xMidYMid meet" version="1.0"><defs><filter x="0%" y="0%" width="100%" height="100%" id="1d551d90f3"><feColorMatrix values="0 0 0 0 1 0 0 0 0 1 0 0 0 0 1 0 0 0 1 0" color-interpolation-filters="sRGB"/></filter><mask id="b1609c50bb"><g filter="url(#1d551d90f3)"><rect x="-81" width="972" fill="#000000" y="-80.999999" height="971.999992" fill-opacity="0.4"/></g></mask><clipPath id="df3eee926c"><path d="M 0 0 L 810 0 L 810 810 L 0 810 Z M 0 0 " clip-rule="nonzero"/></clipPath><clipPath id="6781f21ada"><rect x="0" width="810" y="0" height="810"/></clipPath></defs><g mask="url(#b1609c50bb)"><g transform="matrix(1, 0, 0, 1, 0, 0.000000000000039746)"><g clip-path="url(#6781f21ada)"><g clip-path="url(#df3eee926c)"><path fill="#18216d" d="M 885.308594 -89.441406 C 833.6875 -14.359375 840.746094 82.105469 806.738281 164.109375 C 795.988281 190.03125 778.910156 215.835938 756.113281 232.097656 C 764.140625 222.636719 770.761719 211.949219 776.113281 200.824219 C 795.945312 159.5 798.710938 112.066406 800.433594 66.992188 C 802.15625 21.902344 802.007812 -24.171875 814.628906 -67.886719 C 817.816406 -78.917969 821.824219 -89.695312 826.734375 -100.066406 C 828.261719 -103.285156 823.5625 -106.339844 822.019531 -103.089844 C 782.296875 -19.453125 805.832031 75.953125 783.609375 163.445312 C 777.351562 188.050781 766.605469 212.449219 749.34375 231.390625 C 745.503906 235.589844 741.390625 239.371094 737.054688 242.742188 C 725.265625 247.59375 712.308594 249.9375 698.253906 248.832031 C 658.96875 245.765625 620.800781 221.320312 580.730469 231.132812 C 533.386719 242.726562 513.265625 294.511719 500.570312 336.320312 C 492.105469 364.164062 484.15625 392.1875 475.960938 420.121094 C 468.570312 445.304688 462.296875 471.335938 451.367188 495.292969 C 440.335938 519.492188 423.300781 539.25 398.070312 549.074219 C 394.230469 550.570312 390.316406 551.824219 386.355469 552.929688 C 403.390625 545.023438 418.433594 534.003906 429.316406 516.921875 C 441.632812 497.558594 446.726562 474.644531 450.160156 452.242188 C 454.46875 424.160156 457.492188 395.832031 461.074219 367.640625 C 464.445312 341.097656 466.816406 314.164062 472.457031 287.964844 C 477.15625 266.09375 484.304688 243.585938 498.636719 225.992188 C 513.253906 208.035156 534.308594 199.390625 557.132812 198.722656 C 578.628906 198.105469 599.835938 202.625 621.207031 204.03125 C 642.839844 205.449219 664.4375 203.0625 683.304688 191.605469 C 703.632812 179.253906 718.460938 159.542969 728.636719 138.335938 C 748.464844 97.011719 751.234375 49.578125 752.957031 4.503906 C 754.679688 -40.585938 754.527344 -86.660156 767.148438 -130.375 C 770.339844 -141.40625 774.34375 -152.183594 779.257812 -162.554688 C 780.785156 -165.773438 776.082031 -168.828125 774.542969 -165.578125 C 734.816406 -81.941406 758.351562 13.46875 736.132812 100.957031 C 729.875 125.566406 719.128906 149.960938 701.867188 168.902344 C 685.117188 187.28125 663.214844 197.863281 638.320312 198.769531 C 597.582031 200.25 552.734375 181.6875 514.929688 204.421875 C 476.945312 227.261719 467.269531 276.828125 461.8125 317.304688 C 457.867188 346.507812 454.378906 375.789062 450.675781 405.023438 C 447.363281 431.1875 445.292969 458.0625 437.839844 483.472656 C 430.417969 508.792969 416.316406 530.210938 392.945312 543.359375 C 380.460938 550.375 366.992188 555.015625 353.238281 558.808594 C 341.75 560.019531 330.1875 560.699219 318.835938 561.726562 C 265.160156 566.59375 213.902344 584.113281 167.589844 611.515625 C 75.535156 665.976562 9.554688 753.316406 -39.84375 846.535156 C -45.996094 858.160156 -51.90625 869.886719 -57.648438 881.722656 C -59.207031 884.929688 -54.503906 887.980469 -52.933594 884.746094 C -6.210938 788.535156 54.765625 695.605469 143.707031 633.523438 C 188.570312 602.207031 239.8125 579.261719 294 570.417969 C 302.042969 569.101562 310.371094 568.210938 318.804688 567.441406 C 316.523438 568.015625 314.238281 568.605469 311.972656 569.207031 C 260.925781 582.933594 214.128906 609.175781 173.863281 643.214844 C 134.5 676.5 102.363281 716.359375 75.851562 759.90625 C 38.003906 802.5625 6.484375 851.175781 -20.191406 901.511719 C -26.34375 913.132812 -32.253906 924.863281 -38 936.699219 C -39.554688 939.902344 -34.855469 942.957031 -33.28125 939.722656 C -7.269531 886.136719 23.1875 833.582031 60.417969 786.796875 C 39.816406 824.890625 23.054688 865.21875 9.160156 906.042969 C 4.945312 918.453125 0.984375 930.941406 -2.808594 943.484375 C -3.851562 946.933594 1.484375 948.671875 2.527344 945.210938 C 21.527344 882.175781 46.058594 819.539062 80.324219 763.113281 C 105.023438 735.296875 132.503906 710.039062 163.371094 688.5 C 208.234375 657.179688 259.476562 634.234375 313.664062 625.394531 C 362.488281 617.425781 421.257812 624.742188 456.992188 583.265625 C 472.335938 565.460938 480.933594 542.996094 487.886719 520.851562 C 490.035156 514.035156 492.121094 507.1875 494.160156 500.339844 C 492.167969 515.773438 489.65625 531.132812 485.289062 545.976562 C 477.867188 571.292969 463.765625 592.714844 440.394531 605.863281 C 415.5 619.859375 386.6875 624.378906 359.4375 631.695312 C 308.390625 645.421875 261.59375 671.660156 221.324219 705.703125 C 140.621094 773.949219 90.195312 869.796875 56.625 968.519531 C 52.40625 980.929688 48.445312 993.414062 44.652344 1005.960938 C 43.609375 1009.40625 48.945312 1011.144531 49.988281 1007.683594 C 80.476562 906.542969 125.203125 806.371094 201.566406 731.308594 C 240.371094 693.171875 286.652344 661.957031 338.230469 644.03125 C 385.707031 627.507812 446.910156 626.253906 476.71875 579.410156 C 489.039062 560.046875 494.132812 537.132812 497.5625 514.730469 C 500.027344 498.710938 502.050781 482.609375 504.015625 466.496094 C 506.769531 456.945312 509.519531 447.390625 512.316406 437.855469 C 519.84375 412.203125 526.480469 386.050781 536.515625 361.234375 C 545.765625 338.378906 558.71875 314.707031 579.941406 300.9375 C 618.714844 275.800781 662.261719 299.726562 702.378906 307.316406 C 723.359375 311.289062 744.339844 310.367188 763.839844 301.011719 C 784.773438 290.960938 801.539062 273.5 814.160156 254.304688 C 839.25 216.136719 848.925781 169.808594 857.660156 125.671875 C 866.292969 82.078125 873.683594 37.183594 893.199219 -3.191406 C 897.945312 -13.015625 903.433594 -22.433594 909.597656 -31.410156 C 911.640625 -34.390625 906.925781 -37.398438 904.882812 -34.433594 C 853.261719 40.644531 860.324219 137.113281 826.3125 219.117188 C 807.824219 263.707031 770.597656 307.949219 717.828125 303.824219 C 678.542969 300.753906 640.375 276.3125 600.304688 286.121094 C 552.960938 297.714844 532.84375 349.503906 520.144531 391.3125 C 516.109375 404.597656 512.195312 417.917969 508.308594 431.234375 C 508.355469 430.871094 508.398438 430.507812 508.445312 430.144531 C 511.816406 403.601562 514.191406 376.664062 519.828125 350.46875 C 524.527344 328.597656 531.679688 306.089844 546.007812 288.496094 C 560.625 270.539062 581.679688 261.894531 604.503906 261.226562 C 626 260.609375 647.207031 265.128906 668.582031 266.53125 C 690.210938 267.953125 711.8125 265.566406 730.675781 254.109375 C 733.683594 252.277344 736.539062 250.285156 739.308594 248.152344 C 740.9375 247.488281 742.558594 246.808594 744.160156 246.019531 C 765.09375 235.96875 781.855469 218.511719 794.480469 199.3125 C 819.570312 161.148438 829.246094 114.816406 837.980469 70.679688 C 846.613281 27.085938 854.003906 -17.808594 873.519531 -58.179688 C 878.265625 -68.007812 883.75 -77.421875 889.917969 -86.402344 C 892.078125 -89.394531 887.363281 -92.417969 885.308594 -89.441406 Z M 685.796875 261.257812 C 645.058594 262.738281 600.210938 244.175781 562.410156 266.910156 C 524.421875 289.75 514.75 339.316406 509.292969 379.792969 C 505.4375 408.347656 502.019531 436.960938 498.410156 465.546875 C 497.488281 468.71875 496.566406 471.910156 495.628906 475.082031 C 488.234375 500.265625 481.960938 526.292969 471.035156 550.253906 C 460 574.453125 442.964844 594.210938 417.738281 604.035156 C 392.660156 613.800781 364.996094 614.3125 338.546875 616.703125 C 284.871094 621.570312 233.613281 639.085938 187.296875 666.492188 C 153.847656 686.292969 123.84375 710.449219 96.816406 737.625 C 113.6875 713.0625 132.6875 689.9375 154.179688 668.804688 C 192.980469 630.667969 239.265625 599.453125 290.839844 581.527344 C 311.003906 574.511719 333.648438 570.25 355.308594 564.082031 C 386.21875 560.488281 415.953125 553.171875 437.386719 528.289062 C 452.730469 510.484375 461.328125 488.023438 468.28125 465.878906 C 476.914062 438.367188 484.636719 410.539062 492.738281 382.878906 C 500.269531 357.226562 506.902344 331.078125 516.941406 306.257812 C 526.191406 283.402344 539.144531 259.730469 560.367188 245.960938 C 599.140625 220.824219 642.6875 244.75 682.804688 252.339844 C 694.972656 254.636719 707.140625 255.285156 719.019531 253.609375 C 708.773438 258.1875 697.632812 260.820312 685.796875 261.257812 Z M 685.796875 261.257812 " fill-opacity="1" fill-rule="nonzero"/></g></g></g></g></svg>