<svg xmlns="http://www.w3.org/2000/svg" xmlns:xlink="http://www.w3.org/1999/xlink" width="1080" zoomAndPan="magnify" viewBox="0 0 810 809.999993" height="1080" preserveAspectRatio="xMidYMid meet" version="1.0"><defs><filter x="0%" y="0%" width="100%" height="100%" id="b746a363de"><feColorMatrix values="0 0 0 0 1 0 0 0 0 1 0 0 0 0 1 0 0 0 1 0" color-interpolation-filters="sRGB"/></filter><mask id="2ae800c8f5"><g filter="url(#b746a363de)"><rect x="-81" width="972" fill="#000000" y="-80.999999" height="971.999992" fill-opacity="0.4"/></g></mask><clipPath id="a912e1ea94"><path d="M 0.0234375 0 L 810 0 L 810 627 L 0.0234375 627 Z M 0.0234375 0 " clip-rule="nonzero"/></clipPath><clipPath id="c74eaded9f"><rect x="0" width="810" y="0" height="628"/></clipPath></defs><g mask="url(#2ae800c8f5)"><g transform="matrix(1, 0, 0, 1, 0, 0.000000000000039746)"><g clip-path="url(#c74eaded9f)"><g clip-path="url(#a912e1ea94)"><path fill="#18216d" d="M 89.726562 0 C 85.988281 2.558594 82.539062 5.703125 80.953125 9.894531 C 79.929688 12.683594 78.398438 14.472656 76.863281 15.570312 C 75.328125 16.59375 73.230469 17.105469 71.003906 17.105469 C 66.535156 17.070312 60.960938 15.058594 54.851562 13.117188 C 51.757812 12.09375 49.121094 11.839844 46.949219 12.347656 C 44.902344 12.859375 43.0625 14.140625 41.859375 15.75 C 39.558594 19.203125 38.996094 24.699219 40.066406 31.269531 C 40.582031 34.464844 40.324219 36.382812 39.558594 37.765625 C 38.789062 39.042969 37.511719 40.066406 35.851562 41.039062 C 32.679688 43.082031 28.5625 45.5625 26.542969 53.640625 C 24.496094 62.359375 16.390625 68.140625 8.113281 68.828125 C 5.550781 69.035156 2.996094 68.792969 0.539062 68.0625 L 0.539062 68.828125 C 3.097656 69.597656 5.632812 69.851562 8.1875 69.597656 C 16.800781 68.828125 25.035156 62.898438 27.3125 53.820312 C 29.355469 45.945312 33.089844 43.695312 36.285156 41.703125 C 37.820312 40.679688 39.351562 39.65625 40.246094 38.171875 C 41.269531 36.640625 41.53125 34.441406 40.761719 31.144531 C 39.476562 24.699219 39.992188 19.382812 42.292969 16.210938 C 43.316406 14.675781 44.929688 13.550781 46.921875 13.089844 C 48.964844 12.578125 51.421875 12.84375 54.441406 13.859375 C 60.550781 15.902344 66.125 17.796875 70.824219 17.871094 C 73.132812 17.90625 75.328125 17.363281 77.144531 16.339844 C 78.933594 15.058594 80.441406 13.167969 81.542969 10.277344 C 83.074219 5.933594 87.011719 2.558594 91.054688 0.101562 Z M 148.984375 0 C 142.769531 4.089844 137.019531 9.484375 134.382812 16.492188 C 132.59375 21.144531 130.316406 24.136719 127.554688 25.953125 C 124.796875 27.742188 121.523438 28.507812 117.789062 28.507812 C 110.324219 28.375 101.070312 25.109375 90.867188 21.886719 C 85.707031 20.351562 81.335938 19.839844 77.703125 20.863281 C 74.097656 21.628906 71.234375 23.675781 69.238281 26.539062 C 65.226562 32.292969 64.488281 41.445312 66.453125 52.382812 C 67.476562 57.726562 66.960938 60.921875 65.6875 63.222656 C 64.40625 65.523438 62.179688 66.980469 59.550781 68.644531 C 54.257812 71.992188 47.40625 76.160156 44.054688 89.609375 C 40.421875 104.132812 27.179688 113.769531 13.347656 114.898438 C 9.105469 115.152344 4.808594 114.785156 0.71875 113.363281 L 0.71875 114.640625 C 4.855469 115.917969 9.179688 116.429688 13.453125 116.175781 C 27.792969 114.898438 41.535156 105.027344 45.304688 89.910156 C 48.578125 76.792969 54.945312 73.0625 60.234375 69.710938 C 62.894531 67.921875 65.324219 66.464844 66.832031 63.832031 C 68.367188 61.199219 68.875 57.617188 67.855469 52.121094 C 65.8125 41.382812 66.832031 32.511719 70.414062 27.242188 C 72.203125 24.609375 74.757812 22.820312 78.109375 22.078125 C 81.429688 21.3125 85.597656 21.566406 90.609375 23.101562 C 100.785156 26.324219 110.09375 29.648438 117.910156 29.800781 C 121.820312 29.832031 125.375 29.03125 128.394531 27.113281 C 131.410156 25.070312 133.890625 21.847656 135.707031 17.015625 C 138.441406 9.753906 144.808594 4.179688 151.53125 0.0625 Z M 229.5625 0 C 219.945312 6.289062 211.128906 14.648438 207.035156 25.441406 C 204.324219 32.597656 200.773438 37.226562 196.5 40.066406 C 192.230469 42.902344 187.195312 44.003906 181.441406 43.902344 C 169.9375 43.695312 155.636719 38.632812 139.898438 33.671875 C 131.921875 31.117188 125.171875 30.628906 119.570312 31.882812 C 113.996094 33.164062 109.601562 36.203125 106.503906 40.652344 C 100.320312 49.527344 99.167969 63.691406 102.238281 80.542969 C 103.769531 88.777344 103.003906 93.710938 100.960938 97.242188 C 98.914062 100.769531 95.535156 103.046875 91.472656 105.628906 C 83.316406 110.792969 72.734375 117.234375 67.566406 137.996094 C 61.96875 160.394531 41.507812 175.296875 20.179688 177.046875 C 13.632812 177.558594 7.007812 176.914062 0.695312 174.746094 L 0.695312 176.792969 C 7.085938 178.835938 13.734375 179.554688 20.328125 179.09375 C 42.472656 177.304688 63.679688 161.859375 69.492188 138.542969 C 74.554688 118.292969 84.347656 112.550781 92.53125 107.375 C 96.617188 104.792969 100.378906 102.335938 102.703125 98.296875 C 105.007812 94.257812 105.773438 88.734375 104.238281 80.246094 C 101.21875 63.675781 102.449219 49.972656 108.203125 41.835938 C 111.042969 37.773438 114.925781 35.0625 120.066406 33.886719 C 125.207031 32.605469 131.625 33.117188 139.34375 35.675781 C 151.691406 39.5625 163.175781 43.550781 173.402344 45.1875 C 172.378906 45.324219 171.355469 45.390625 170.363281 45.699219 C 162.382812 47.488281 156.121094 51.886719 151.722656 58.203125 C 142.898438 70.859375 141.242188 91.050781 145.613281 115.105469 C 147.652344 126.839844 146.632812 133.898438 143.820312 138.933594 C 140.929688 143.972656 136.101562 147.21875 130.273438 150.902344 C 118.636719 158.265625 103.539062 167.46875 96.15625 197.089844 C 88.179688 229.0625 58.984375 250.269531 28.554688 252.769531 C 19.222656 253.535156 9.761719 252.566406 0.765625 249.570312 L 0.765625 252.460938 C 9.867188 255.375 19.375 256.371094 28.785156 255.609375 C 60.375 253.023438 90.613281 231.035156 98.910156 197.777344 C 106.121094 168.890625 120.105469 160.675781 131.785156 153.289062 C 137.613281 149.582031 142.984375 146.128906 146.308594 140.351562 C 149.605469 134.574219 150.679688 126.699219 148.351562 114.59375 C 144.054688 90.941406 146.050781 71.410156 154.003906 59.800781 C 158.039062 53.996094 163.613281 50.109375 170.925781 48.449219 C 178.238281 46.914062 187.394531 47.425781 198.445312 51.007812 C 209.390625 54.457031 219.820312 57.960938 229.699219 60.695312 C 228.929688 60.832031 228.167969 60.945312 227.398438 61.207031 C 216.738281 63.507812 208.378906 69.464844 202.46875 77.929688 C 190.6875 94.828125 188.433594 121.839844 194.289062 153.996094 C 197.152344 169.695312 195.566406 179.128906 191.734375 185.863281 C 187.871094 192.609375 181.402344 196.933594 173.625 201.84375 C 158.082031 211.683594 137.898438 223.984375 128.027344 263.582031 C 117.359375 306.320312 78.328125 334.675781 37.648438 338.015625 C 25.140625 339.039062 12.539062 337.761719 0.503906 333.773438 L 0.503906 337.632812 C 12.671875 341.519531 25.382812 342.875 37.960938 341.828125 C 80.195312 338.347656 120.617188 308.984375 131.703125 264.519531 C 141.339844 225.90625 160.054688 214.941406 175.65625 205.066406 C 183.457031 200.128906 190.617188 195.476562 195.039062 187.757812 C 199.464844 180.035156 200.921875 169.5 197.980469 153.316406 C 192.226562 121.703125 194.734375 95.597656 205.546875 80.082031 C 210.96875 72.335938 218.382812 67.117188 228.175781 64.894531 C 232.546875 63.871094 237.453125 63.617188 242.796875 63.871094 C 247.097656 64.636719 251.214844 65.40625 255.203125 65.40625 C 258.34375 66.171875 261.570312 66.941406 264.96875 67.988281 C 275.425781 71.285156 285.453125 74.507812 295.214844 77.472656 C 293.933594 77.679688 292.65625 77.984375 291.402344 78.242188 C 277.75 81.335938 267.011719 88.828125 259.4375 99.667969 C 244.332031 121.351562 241.46875 155.976562 248.957031 197.214844 C 252.617188 217.335938 250.746094 229.429688 245.734375 238.078125 C 240.777344 246.71875 232.492188 252.292969 222.523438 258.582031 C 202.601562 271.1875 176.710938 286.972656 164.050781 337.742188 C 150.394531 392.546875 100.320312 428.925781 48.15625 433.203125 C 32.152344 434.484375 15.9375 432.949219 0.519531 427.734375 L 0.519531 432.691406 C 16.121094 437.679688 32.441406 439.390625 48.550781 438.089844 C 102.707031 433.640625 154.546875 395.980469 168.765625 338.960938 C 181.113281 289.445312 205.113281 275.378906 225.121094 262.71875 C 235.117188 256.375 244.300781 250.445312 249.976562 240.550781 C 255.652344 230.65625 257.492188 217.128906 253.734375 196.375 C 246.371094 155.835938 249.542969 122.363281 263.425781 102.46875 C 270.351562 92.523438 279.890625 85.847656 292.441406 83.011719 C 297.378906 81.988281 302.824219 81.476562 308.726562 81.476562 C 319.902344 84.492188 330.4375 86.640625 340.265625 87.332031 C 346.710938 89.375 352.921875 91.371094 359.164062 93.363281 C 356.863281 93.621094 354.636719 94.132812 352.488281 94.644531 C 335.972656 98.378906 322.972656 107.480469 313.824219 120.59375 C 295.515625 146.832031 292.0625 188.726562 301.140625 238.625 C 305.5625 262.96875 303.183594 277.609375 297.253906 288.074219 C 291.246094 298.53125 281.222656 305.253906 269.175781 312.875 C 245.066406 328.140625 213.734375 347.226562 198.414062 408.664062 C 181.871094 474.972656 121.3125 518.996094 58.195312 524.175781 C 38.808594 525.707031 19.210938 523.660156 0.554688 517.550781 L 0.554688 523.535156 C 19.425781 529.546875 39.175781 531.640625 58.671875 530.054688 C 124.199219 524.683594 186.921875 479.09375 204.125 410.101562 C 219.058594 350.1875 248.101562 333.164062 272.308594 317.84375 C 284.40625 310.171875 295.550781 302.988281 302.40625 291.023438 C 309.257812 279.054688 311.507812 262.699219 306.929688 237.578125 C 298.007812 188.527344 301.871094 148.011719 318.667969 123.933594 C 327.054688 111.890625 338.585938 103.839844 353.777344 100.386719 C 360.554688 98.851562 368.121094 98.339844 376.40625 98.851562 C 392.871094 103.914062 408.621094 108.261719 423.171875 110.585938 C 420.871094 110.84375 418.566406 111.355469 416.34375 111.867188 C 396.808594 116.289062 381.464844 127.027344 370.65625 142.519531 C 349.023438 173.519531 344.945312 223.011719 355.671875 281.964844 C 360.914062 310.734375 358.230469 328.019531 351.070312 340.378906 C 343.988281 352.730469 332.148438 360.679688 317.898438 369.699219 C 289.410156 387.722656 252.390625 410.28125 234.289062 482.863281 C 214.753906 561.203125 143.199219 613.203125 68.625 619.320312 C 45.71875 621.109375 22.574219 618.808594 0.535156 611.523438 L 0.535156 618.605469 C 22.828125 625.710938 46.164062 628.191406 69.199219 626.300781 C 146.617188 619.960938 220.71875 566.09375 241.039062 484.582031 C 258.679688 413.796875 292.996094 393.6875 321.605469 375.585938 C 335.898438 366.535156 349.042969 358.046875 357.152344 343.898438 C 365.253906 329.757812 367.914062 310.433594 362.492188 280.75 C 351.960938 222.800781 356.511719 174.941406 376.351562 146.5 C 386.273438 132.285156 399.875 122.75 417.828125 118.683594 C 426.265625 116.894531 435.699219 116.125 446.121094 116.894531 C 470.84375 124.691406 494.046875 131.3125 515.332031 134.332031 C 558.421875 148.113281 598.203125 160.183594 632.480469 160.785156 C 653.546875 161.042969 672.75 157.128906 689.09375 146.261719 C 705.433594 135.398438 718.730469 117.839844 728.550781 91.8125 C 743.304688 52.6875 777.671875 22.554688 814.007812 0.375 L 800.761719 0.375 C 767.191406 22.386719 736.296875 51.570312 722.042969 89.34375 C 712.582031 114.402344 700.128906 130.527344 685.210938 140.445312 C 670.308594 150.363281 652.683594 154.199219 632.5625 153.84375 C 606.664062 153.332031 576.703125 145.863281 544 135.972656 C 558.46875 135.203125 571.769531 131.570312 583.34375 123.875 C 597.179688 114.671875 608.425781 99.816406 616.738281 77.792969 C 629.242188 44.675781 658.3125 19.167969 689.070312 0.390625 L 677.871094 0.390625 C 649.453125 19.03125 623.300781 43.722656 611.238281 75.695312 C 603.234375 96.890625 592.699219 110.558594 580.066406 118.953125 C 567.433594 127.339844 552.527344 130.589844 535.496094 130.304688 C 531.457031 130.273438 527.289062 130.050781 523.019531 129.539062 C 511.386719 125.855469 499.550781 122.023438 487.351562 118.1875 C 477.433594 115.066406 468.074219 112.84375 459.234375 111.460938 C 467.519531 109.929688 475.238281 107.167969 482.195312 102.539062 C 493.621094 94.945312 502.929688 82.648438 509.792969 64.445312 C 520.125 37.078125 544.152344 16 569.570312 0.484375 L 560.316406 0.484375 C 536.820312 15.875 515.210938 36.304688 505.238281 62.730469 C 498.617188 80.242188 489.925781 91.53125 479.480469 98.464844 C 469.050781 105.394531 456.726562 108.078125 442.652344 107.847656 C 440.351562 107.8125 437.769531 107.601562 435.289062 107.335938 C 427.796875 105.035156 420.332031 102.554688 412.585938 100.128906 C 398.0625 95.550781 384.933594 93.199219 373.113281 92.96875 C 367.335938 91.179688 361.351562 89.3125 355.371094 87.394531 C 362.914062 86.371094 369.917969 84.199219 376.132812 80.082031 C 385.054688 74.152344 392.289062 64.589844 397.660156 50.382812 C 405.714844 29.03125 424.464844 12.601562 444.285156 0.5 L 437.074219 0.5 C 418.769531 12.519531 401.90625 28.425781 394.128906 49.035156 C 388.964844 62.6875 382.1875 71.507812 374.03125 76.90625 C 365.902344 82.300781 356.316406 84.398438 345.355469 84.21875 C 343.820312 83.707031 342.542969 83.195312 341.085938 82.941406 C 327.917969 78.773438 316.132812 76.90625 305.648438 77.058594 C 293.683594 73.683594 281.003906 69.542969 267.703125 65.324219 C 272.6875 64.558594 277.34375 62.769531 281.511719 60.132812 C 288.1875 55.710938 293.605469 48.550781 297.617188 37.914062 C 303.652344 21.933594 317.664062 9.648438 332.496094 0.597656 L 327.101562 0.597656 C 313.398438 9.570312 300.792969 21.484375 294.976562 36.90625 C 291.113281 47.132812 286.03125 53.703125 279.945312 57.769531 C 274.214844 61.578125 267.492188 63.113281 259.875 63.1875 C 252.28125 61.144531 245.324219 60.300781 238.980469 60.351562 C 226.839844 57.566406 213.519531 53.191406 199.199219 48.667969 C 195.109375 47.386719 191.347656 46.621094 187.71875 46.007812 C 191.25 45.496094 194.546875 44.21875 197.511719 42.351562 C 202.191406 39.230469 206 34.21875 208.789062 26.78125 C 213.003906 15.582031 222.851562 6.964844 233.230469 0.625 Z M 229.5625 0 " fill-opacity="1" fill-rule="nonzero"/></g></g></g></g></svg>