<svg xmlns="http://www.w3.org/2000/svg" xmlns:xlink="http://www.w3.org/1999/xlink" width="1080" zoomAndPan="magnify" viewBox="0 0 810 809.999993" height="1080" preserveAspectRatio="xMidYMid meet" version="1.0"><defs><filter x="0%" y="0%" width="100%" height="100%" id="6cf59c3a0a"><feColorMatrix values="0 0 0 0 1 0 0 0 0 1 0 0 0 0 1 0 0 0 1 0" color-interpolation-filters="sRGB"/></filter><mask id="64ab28dca2"><g filter="url(#6cf59c3a0a)"><rect x="-81" width="972" fill="#000000" y="-80.999999" height="971.999992" fill-opacity="0.4"/></g></mask><clipPath id="30c7c874d5"><path d="M 0 2 L 796 2 L 796 776 L 0 776 Z M 0 2 " clip-rule="nonzero"/></clipPath><clipPath id="e40728dd06"><path d="M 59 87 L 747 87 L 747 776 L 59 776 Z M 59 87 " clip-rule="nonzero"/></clipPath><clipPath id="1a809a42be"><path d="M 130 179 L 661 179 L 661 776 L 130 776 Z M 130 179 " clip-rule="nonzero"/></clipPath><clipPath id="419bd1926f"><path d="M 174 293 L 535 293 L 535 776 L 174 776 Z M 174 293 " clip-rule="nonzero"/></clipPath><clipPath id="823ed7fe0c"><path d="M 228 466 L 459 466 L 459 776 L 228 776 Z M 228 466 " clip-rule="nonzero"/></clipPath><clipPath id="8fb2058f47"><path d="M 277 650 L 399 650 L 399 776 L 277 776 Z M 277 650 " clip-rule="nonzero"/></clipPath><clipPath id="b00e6b57fa"><rect x="0" width="797" y="0" height="776"/></clipPath></defs><g mask="url(#64ab28dca2)"><g transform="matrix(1, 0, 0, 1, 0, 34)"><g clip-path="url(#b00e6b57fa)"><g clip-path="url(#30c7c874d5)"><path fill="#18216d" d="M 795.832031 765.414062 C 795.511719 763.75 794.125 762.765625 792.753906 761.960938 C 790.898438 760.605469 789.058594 759.25 787.300781 757.785156 C 781.867188 753.1875 769.753906 742.332031 761.976562 734.621094 C 728.089844 701.042969 701.382812 667.15625 679.898438 626.265625 C 661.914062 591.589844 649.738281 554.332031 634.269531 518.527344 C 616.816406 476.25 595.816406 435.589844 574.429688 395.1875 C 553.671875 355.527344 533.445312 315.558594 511.171875 276.71875 C 491.867188 243.1875 473.609375 209.074219 455.996094 174.621094 C 444.785156 152.734375 433.738281 130.671875 420.285156 110.027344 C 411.476562 96.378906 401.109375 83.832031 390.414062 71.636719 C 371.058594 49.894531 349.367188 29.21875 322.65625 16.878906 C 300.042969 5.703125 274.125 0.234375 248.980469 3.347656 C 227.480469 6.765625 207.847656 17.734375 189.753906 29.378906 C 175.914062 38.558594 163.074219 49.171875 151.109375 60.65625 C 141.316406 70.105469 131.980469 80.15625 124.867188 91.816406 C 111.125 113.976562 99.480469 137.476562 89.480469 161.542969 C 80.6875 185.171875 74.238281 209.6875 69.960938 234.507812 C 63.171875 273.507812 64.089844 313.234375 63.945312 352.671875 C 63.609375 409.347656 65.238281 466.007812 65.253906 522.671875 C 63.800781 598.1875 56.527344 670.21875 30.703125 740.765625 C 25.21875 755.203125 19.65625 767.136719 11.558594 780.285156 C 9.558594 783.492188 7.511719 786.6875 5.058594 789.589844 C 4.914062 789.765625 4.140625 790.589844 3.640625 791.171875 C 2.769531 792.265625 1.527344 793.089844 0.898438 794.347656 C 0.140625 795.71875 0.738281 797.589844 2.042969 798.414062 C 3.21875 799.1875 4.914062 799.042969 5.945312 798.074219 C 14.542969 789.558594 20.253906 778.765625 25.945312 768.21875 C 38.042969 744.671875 45.429688 719.074219 52.347656 693.621094 C 67.058594 638.042969 71.65625 580.414062 72.867188 523.089844 C 73.21875 487.023438 71.867188 450.960938 71.898438 414.894531 C 71.71875 385.300781 71.6875 355.6875 71.816406 326.089844 C 71.882812 293.960938 72.769531 261.65625 78.753906 229.992188 C 82.738281 209.992188 90.398438 178.527344 100.316406 156.25 C 110.238281 134.203125 122.914062 107.765625 138.945312 85.671875 C 153.1875 68.074219 178.269531 46.027344 197.867188 33.894531 C 214.589844 23.785156 230.703125 15.15625 247.65625 11.992188 C 275.058594 7.492188 306.867188 16.089844 331.398438 30.765625 C 360.960938 48.832031 382.253906 73.121094 405.625 103.027344 C 420.65625 123.21875 436.238281 153.527344 449.316406 179.25 C 468.203125 216.105469 487.914062 252.542969 508.398438 288.542969 C 527.996094 323.414062 545.929688 359.171875 564.398438 394.636719 C 589.589844 442.265625 613.785156 490.460938 633.914062 540.476562 C 646.65625 571.347656 657.574219 603.058594 673.316406 632.605469 C 692.042969 667.976562 716.382812 700.21875 744.089844 729.042969 C 755.738281 741.089844 767.785156 752.800781 780.847656 763.316406 C 784.15625 765.75 787.285156 768.71875 791.125 770.171875 C 793.785156 770.878906 796.511719 768.105469 795.832031 765.414062 Z M 795.832031 765.414062 " fill-opacity="1" fill-rule="nonzero"/></g><g clip-path="url(#e40728dd06)"><path fill="#18216d" d="M 743.574219 789.945312 C 739.65625 787.636719 735.753906 785.316406 731.867188 782.976562 C 717.011719 774.007812 701.847656 765.347656 688.285156 754.460938 C 656.527344 728.65625 625.882812 692.785156 606.089844 655.007812 C 593.785156 631.347656 586.945312 610.574219 580.058594 585.507812 C 571.671875 554.105469 563.316406 522.6875 554.347656 491.445312 C 543.253906 448.929688 528.867188 407.042969 507.042969 368.734375 C 493.347656 344.914062 474.65625 322.394531 461.109375 301.785156 C 451.996094 288.1875 443.511719 274.15625 433.867188 260.914062 C 421.347656 243.945312 408.125 227.492188 396.171875 210.089844 C 381.6875 189.363281 369.6875 172.027344 355.960938 151.847656 C 348.867188 141.65625 341.980469 131.234375 333.671875 121.976562 C 326.347656 114.027344 318.011719 106.992188 308.929688 101.15625 C 295.929688 92.800781 280.785156 88.492188 265.398438 87.765625 C 247.445312 86.445312 228.125 89.460938 214.203125 101.65625 C 206.527344 108.414062 200.15625 116.476562 193.703125 124.378906 C 184.640625 135.847656 176.398438 148.027344 169.832031 161.089844 C 158.574219 183.007812 151.65625 206.765625 143.847656 230.058594 C 137.027344 251.042969 130.480469 272.136719 125.445312 293.636719 C 120.832031 314.394531 117.480469 335.414062 114.589844 356.476562 C 110.089844 393.21875 105.753906 430.042969 104.125 467.042969 C 103.058594 495.542969 102.671875 524.105469 104.074219 552.605469 C 104.769531 567.992188 106.398438 583.316406 106.832031 598.71875 C 107.429688 619.378906 106.785156 640.089844 105.058594 660.6875 C 102.753906 687.492188 97.398438 712.074219 87.15625 737.542969 C 79.769531 755.976562 70.527344 772.992188 61.429688 791.121094 C 60.71875 792.878906 59.140625 794.394531 59.460938 796.378906 C 59.945312 798.945312 63.6875 799.765625 65.074219 797.429688 C 79.445312 770.203125 94.316406 742.878906 102.589844 713.042969 C 112.15625 679.445312 113.800781 644.203125 113.816406 609.445312 C 113.769531 590.203125 111.738281 571.042969 110.914062 551.832031 C 109.285156 507.558594 110.589844 463.121094 114.867188 419.007812 C 118.574219 381.734375 122.367188 341.605469 129.445312 306.414062 C 133.945312 283.15625 140.960938 260.492188 148.238281 237.976562 C 157.71875 209.976562 165.71875 181.203125 179.980469 156.363281 C 187.140625 143.75 195.867188 132.105469 205.109375 120.945312 C 209.882812 115.285156 218.609375 104.960938 225.769531 101.429688 C 241.15625 93.429688 252.738281 93.394531 271.089844 95.105469 C 286.929688 96.765625 300.558594 102.476562 314.609375 113.492188 C 329.6875 124.527344 343.414062 145.058594 353.960938 160.71875 C 368.496094 182.15625 380.898438 199.863281 395.15625 220.285156 C 406.574219 236.703125 419.300781 252.15625 430.929688 268.429688 C 439.589844 280.605469 450.445312 298.527344 460.671875 313.203125 C 477.832031 337.945312 494.285156 357.574219 507.6875 384.460938 C 517.382812 403.105469 527.15625 426.71875 532.929688 443.507812 C 539.382812 462.527344 544.347656 481.992188 549.867188 501.285156 C 560.414062 537.058594 568.847656 573.429688 579.640625 609.136719 C 591.589844 648.234375 611.976562 684.378906 638.253906 715.621094 C 657.347656 738.15625 678.816406 759.105469 703.929688 774.863281 C 713.382812 780.832031 723.027344 786.460938 732.609375 792.203125 C 735.914062 793.960938 738.929688 796.378906 742.414062 797.6875 C 744.882812 798.316406 747.382812 795.75 746.769531 793.285156 C 746.445312 791.589844 744.976562 790.671875 743.574219 789.945312 Z M 743.574219 789.945312 " fill-opacity="1" fill-rule="nonzero"/></g><g clip-path="url(#1a809a42be)"><path fill="#18216d" d="M 656.769531 793.429688 C 618.609375 774.1875 593.703125 755.589844 568.203125 721.523438 C 542.527344 688.300781 524.542969 645.832031 513.703125 603.914062 C 505.753906 575.265625 502.042969 545.6875 494.980469 516.847656 C 490.347656 498.316406 483.511719 480.445312 476.609375 462.671875 C 469.238281 443.832031 461.074219 425.265625 450.914062 407.734375 C 423.300781 360.1875 390.1875 316.203125 357.914062 271.800781 C 343.589844 251.203125 326.414062 222.558594 307.089844 201.589844 C 300.011719 194.089844 293.21875 185.542969 283.6875 181.121094 C 273.609375 177.75 262.347656 178.734375 252.460938 182.285156 C 238.980469 187.414062 228.332031 198.203125 220.558594 210.105469 C 209.496094 227.300781 205.269531 247.636719 199.847656 267.074219 C 184.625 322.605469 174.832031 379.492188 171.027344 436.945312 C 167.269531 483.765625 164.011719 530.671875 162.914062 577.636719 C 162.382812 591.816406 163.089844 605.992188 162.671875 620.171875 C 162.109375 638.527344 160.398438 656.832031 157.785156 674.992188 C 152.429688 710.332031 144.285156 744.300781 134.496094 780.878906 C 134.125 782.136719 133.738281 783.414062 133.316406 784.65625 C 132.945312 785.75 132.542969 786.847656 132.089844 787.929688 C 132.042969 788.023438 132.011719 788.121094 131.960938 788.21875 C 131.316406 789.507812 130.285156 790.671875 130.640625 792.171875 C 131.125 794.800781 134.980469 795.636719 136.382812 793.234375 C 139.960938 786.992188 141.332031 779.785156 143.285156 772.929688 C 146.125 762.15625 148.867188 751.347656 151.445312 740.492188 C 158.738281 710.347656 164.929688 679.863281 167.71875 648.945312 C 170.042969 627.542969 169.460938 606.042969 169.527344 584.558594 C 169.980469 559.378906 171.21875 534.21875 172.753906 509.089844 C 176.027344 462.992188 178.542969 416.75 184.945312 370.960938 C 190.589844 331.058594 199.832031 292.832031 210.980469 252.460938 C 217.960938 225.558594 228.800781 201.363281 251.914062 189.914062 C 258.445312 186.945312 265.898438 185.476562 273.929688 186.074219 C 279.898438 186.558594 282.269531 187.347656 288.058594 192.042969 C 300.589844 203.21875 317.332031 223.765625 328.527344 240.476562 C 335.511719 250.636719 347.476562 269.542969 356.882812 282.300781 C 389.65625 327.460938 420.300781 368.460938 447.914062 417.203125 C 457.640625 434.734375 465.316406 453.285156 472.574219 471.945312 C 479.769531 490.589844 485.347656 505.976562 489.980469 526.363281 C 496.382812 556.21875 501.027344 586.476562 509.574219 615.832031 C 521.445312 659.136719 541.347656 702.332031 570.15625 736.363281 C 580.945312 749.523438 592.976562 761.75 606.65625 771.914062 C 622.074219 783.136719 638.785156 792.71875 655.945312 800.914062 C 660.511719 801.460938 662.382812 795.378906 656.769531 793.429688 Z M 656.769531 793.429688 " fill-opacity="1" fill-rule="nonzero"/></g><g clip-path="url(#419bd1926f)"><path fill="#18216d" d="M 516.074219 760.089844 C 508.527344 746.914062 500.867188 733.765625 494.011719 720.203125 C 478.945312 690.316406 466.496094 659.007812 456.929688 629.621094 C 448.300781 603.136719 441.867188 575.945312 431.832031 549.929688 C 418.347656 514.042969 404.480469 478.316406 387.511719 443.894531 C 379.945312 427.976562 372.542969 411.945312 364.042969 396.492188 C 357.21875 384.574219 349.558594 373.171875 341.71875 361.894531 C 328.960938 344.300781 315.203125 319.929688 296.558594 303.347656 C 288.847656 296.765625 277.15625 290.621094 267.285156 295.863281 C 263.847656 298.363281 261.414062 302.089844 259.027344 305.558594 C 243.300781 331.1875 241.496094 362.378906 239.300781 391.636719 C 237.1875 428.300781 235.65625 464.976562 233.65625 501.636719 C 230.542969 545.171875 225.980469 588.605469 221.15625 631.992188 C 218.347656 655.558594 211.945312 678.074219 204.285156 701.6875 C 197.816406 723.007812 190.996094 744.234375 184.089844 765.414062 C 181.269531 775.007812 176.832031 784.234375 174.382812 793.863281 C 174.398438 795.507812 175.898438 796.894531 177.511719 796.976562 C 178.996094 797.089844 180.460938 796.074219 180.898438 794.65625 C 191.15625 766.636719 200.074219 738.136719 208.832031 709.621094 C 217.203125 683.574219 225.125 657.25 228.300781 629.976562 C 233.382812 585.1875 238.269531 540.347656 241.171875 495.363281 C 242.542969 467.816406 243.914062 440.265625 245.460938 412.71875 C 246.460938 390.234375 248.140625 362.800781 252.171875 343.929688 C 255.800781 327.105469 261.445312 311.785156 271.460938 301.960938 C 275.753906 299.960938 285.332031 302.589844 293.140625 309.863281 C 304.589844 320.332031 315.027344 335.507812 322.074219 345.734375 C 331.089844 359.136719 338.300781 368.929688 346.445312 381.332031 C 359.574219 400.71875 369.382812 422.027344 379.414062 443.105469 C 387.058594 459.347656 394.882812 475.523438 401.816406 492.089844 C 410.414062 512.878906 418.140625 534.023438 426.253906 555.023438 C 435.6875 579.6875 442.960938 610.460938 452.316406 638.21875 C 463.21875 670.542969 476.21875 702.21875 491.800781 732.589844 C 502.832031 754.605469 517.480469 777.460938 528.203125 794.007812 C 529.011719 795.6875 531.253906 796.429688 532.898438 795.523438 C 535.203125 794.394531 535.253906 791.265625 533.574219 789.542969 C 526.367188 778.265625 522.269531 771.042969 516.074219 760.089844 Z M 516.074219 760.089844 " fill-opacity="1" fill-rule="nonzero"/></g><g clip-path="url(#823ed7fe0c)"><path fill="#18216d" d="M 457.511719 792.894531 C 457.460938 792.71875 457.445312 792.542969 457.414062 792.347656 C 457.414062 792.105469 457.398438 791.847656 457.332031 791.605469 C 452.640625 778.878906 449.960938 772.21875 445.914062 758.703125 C 445.882812 758.605469 445.847656 758.476562 445.785156 758.332031 C 446.074219 757.636719 446.15625 756.863281 445.960938 756.042969 C 443.753906 748.878906 441.367188 741.765625 438.996094 734.65625 C 434.074219 719.863281 429.074219 705.121094 424.316406 690.285156 C 416.867188 667.316406 411.027344 643.832031 402.527344 621.203125 C 391.882812 593.863281 378.945312 567.445312 368.398438 540.058594 C 364.414062 529.703125 361.996094 522.476562 358.71875 510.558594 C 353.996094 493.734375 344.6875 467.347656 320.140625 466.234375 C 293.285156 465.023438 289.429688 498.007812 287.253906 518.234375 C 285.316406 538.460938 284.429688 558.765625 282.671875 579.007812 C 280.542969 606.621094 277.914062 631.734375 271.6875 656.832031 C 267.496094 675.316406 263.140625 693.785156 258.832031 712.234375 C 254.832031 729.785156 250.71875 747.394531 243.914062 764.105469 C 240.589844 772.71875 235.382812 782.816406 231.527344 788.15625 C 231.511719 788.15625 231.511719 788.15625 231.496094 788.15625 C 228.558594 788.589844 227.71875 792.976562 230.316406 794.476562 C 235.125 797.1875 238.058594 790.914062 240.285156 787.621094 C 245.816406 778.574219 249.945312 768.75 253.640625 758.832031 C 258.71875 744.894531 262.1875 730.445312 265.542969 716.023438 C 270.6875 694.203125 276.089844 672.445312 280.832031 650.542969 C 286.332031 626.316406 288.300781 601.523438 290.238281 576.832031 C 291.800781 557.863281 292.832031 538.863281 294.285156 519.878906 C 296.574219 493.492188 302.738281 464.945312 328.785156 475.703125 C 348.589844 484.605469 350.6875 519.589844 361.769531 545.023438 C 372.625 573.429688 386.269531 600.6875 396.800781 629.203125 C 401.316406 641.671875 407.769531 664.316406 412.703125 680.785156 C 417.769531 697.378906 423.332031 713.816406 428.769531 730.285156 C 431.496094 738.394531 434.089844 746.542969 436.832031 754.636719 C 437.109375 755.460938 437.398438 756.285156 437.6875 757.089844 C 437.867188 757.847656 438.140625 758.589844 438.398438 759.300781 C 440.816406 766.703125 442.269531 770.71875 444.382812 776.65625 C 446.476562 782.71875 447.460938 784.460938 448.976562 791.058594 C 449.253906 792.21875 449.609375 793.445312 450.171875 794.492188 C 450.21875 794.574219 450.253906 794.65625 450.285156 794.734375 C 450.589844 796.15625 450.929688 797.671875 452.269531 798.460938 C 454.914062 800.285156 458.753906 797.671875 457.996094 794.523438 C 457.945312 794.171875 457.703125 793.429688 457.511719 792.894531 Z M 457.511719 792.894531 " fill-opacity="1" fill-rule="nonzero"/></g><g clip-path="url(#8fb2058f47)"><path fill="#18216d" d="M 373.074219 718.429688 C 368.980469 699.429688 365.460938 680.058594 356.738281 662.507812 C 353.574219 655.847656 348.011719 649.042969 339.800781 650.507812 C 331.589844 651.960938 326.980469 659.832031 324.089844 666.960938 C 320.753906 675.105469 318.285156 683.589844 316.089844 692.121094 C 311.171875 712.1875 305.800781 732.21875 298.011719 751.394531 C 293.1875 763.1875 290.65625 768.316406 286.496094 776.574219 C 284.285156 780.878906 281.929688 785.105469 279.445312 789.25 C 278.65625 790.863281 277.027344 792.316406 277.398438 794.25 C 277.867188 796.847656 281.609375 797.589844 282.980469 795.300781 C 297.382812 773.15625 307.625 748.558594 315.140625 723.300781 C 322.480469 699.878906 329.171875 649.492188 345.109375 658.574219 C 348.140625 659.671875 355.238281 676.429688 357.496094 684.976562 C 361.285156 697.800781 363.347656 711.027344 366.382812 724.027344 C 372.042969 748.800781 380.914062 774.765625 387.445312 796.121094 C 388.347656 799.023438 389.316406 801.929688 390.285156 804.800781 C 390.703125 805.929688 390.898438 807.285156 391.976562 807.992188 C 394.285156 810.203125 398.476562 808.363281 398.558594 805.1875 C 395.960938 795.445312 394.058594 792.992188 390.929688 781.605469 C 384.71875 760.605469 377.738281 739.832031 373.074219 718.429688 Z M 373.074219 718.429688 " fill-opacity="1" fill-rule="nonzero"/></g></g></g></g></svg>