<svg xmlns="http://www.w3.org/2000/svg" xmlns:xlink="http://www.w3.org/1999/xlink" width="1080" zoomAndPan="magnify" viewBox="0 0 810 809.999993" height="1080" preserveAspectRatio="xMidYMid meet" version="1.0"><path fill="#000000" d="M 95.277344 592.847656 C 86.035156 590.84375 79.746094 589.78125 73.941406 587.496094 C 48.757812 577.582031 11.3125 574.753906 8.519531 544.949219 C 5.890625 516.898438 39.410156 501.628906 61.914062 486.507812 C 121.113281 446.734375 186.265625 442.605469 253.839844 459.375 C 264.804688 462.097656 275.738281 465.546875 286.074219 470.0625 C 305.003906 478.328125 313.707031 468.679688 321.109375 453.035156 C 329.996094 434.253906 317.75 429.21875 304.402344 422.601562 C 210.148438 375.871094 169.800781 298.433594 175.945312 194.886719 C 178.167969 157.4375 189.703125 149.515625 223.726562 164.4375 C 302.667969 199.054688 348.402344 259.6875 361.910156 344.691406 C 364.277344 359.597656 367.105469 374.597656 367.519531 389.617188 C 368.175781 413.402344 383.414062 414.3125 401.132812 414.410156 C 420.214844 414.515625 433.292969 409.433594 432.621094 387.066406 C 431.824219 360.535156 433.574219 334.347656 441.664062 308.671875 C 463.050781 240.808594 507.171875 193.328125 571.152344 164.070312 C 604.597656 148.773438 616.421875 157.140625 619.265625 193.808594 C 627.492188 299.761719 584.519531 376.695312 489.425781 423.988281 C 477.109375 430.113281 465.9375 434.597656 473.394531 451.40625 C 480.007812 466.308594 487.222656 478.179688 507.382812 470.457031 C 539.21875 458.257812 571.925781 452.261719 606.609375 450.667969 C 673.4375 447.59375 725.566406 475.792969 773.484375 517.515625 C 797.753906 538.648438 793.875 554.816406 766.679688 569.03125 C 683.308594 612.597656 602.308594 608.347656 523.773438 557.144531 C 510.183594 548.28125 497.859375 537.472656 483.527344 526.46875 C 424.808594 573.273438 423.882812 646.101562 397.828125 710.394531 C 373.808594 646.710938 369.015625 576.875 314.980469 525.195312 C 252.511719 578.558594 183.28125 612.296875 95.277344 592.847656 M 203.207031 225.214844 C 208.027344 298.671875 242.128906 354.007812 306.28125 390.199219 C 325.902344 401.265625 339.078125 398.765625 342.089844 372.238281 C 350.402344 298.984375 285.191406 208.625 210.421875 191.707031 C 200.417969 198.820312 204.292969 209.746094 203.207031 225.214844 M 528.378906 218.300781 C 480.738281 255.355469 458.0625 305.554688 453.789062 364.382812 C 452.371094 383.902344 453.820312 405.515625 484.789062 393.160156 C 555.382812 364.992188 605.726562 265.589844 586.125 191.34375 C 564.242188 189.953125 549.960938 205.976562 528.378906 218.300781 M 169.171875 471.25 C 118.269531 475.425781 77.191406 497.050781 44.878906 536.863281 C 115.023438 600.109375 256.4375 563.414062 282.542969 497.550781 C 250.402344 475.175781 214.222656 468.867188 169.171875 471.25 M 731.117188 552.734375 C 750.628906 543.652344 750.320312 532.535156 735.199219 518.925781 C 707.472656 493.964844 675.542969 476.652344 638.585938 472.597656 C 594.003906 467.703125 549.324219 467.195312 513.113281 501.675781 C 558.867188 566.066406 640.597656 585.859375 731.117188 552.734375 M 448.527344 465.128906 C 432.476562 442.898438 381.980469 429.503906 362.941406 446.507812 C 347.230469 460.539062 326.648438 481.917969 342.164062 504.335938 C 364.015625 535.910156 380.816406 569.917969 399.339844 609.523438 C 413.671875 568.832031 428.253906 535.371094 452.863281 507.785156 C 465.445312 493.683594 456.539062 482.328125 448.527344 465.128906 Z M 448.527344 465.128906 " fill-opacity="1" fill-rule="nonzero"/><path fill="#000000" d="M 609.851562 335.109375 C 618.425781 326.0625 625.324219 318.265625 633.945312 313.738281 C 664.71875 297.574219 705.953125 303.75 728.074219 327.78125 C 749.125 350.644531 752.738281 376.832031 737.925781 404.300781 C 720.070312 437.40625 690.171875 449.347656 655.1875 442.214844 C 619.878906 435.015625 586.007812 420.332031 538.660156 429.726562 C 557.476562 395.820312 576.75 389.515625 603.011719 401.066406 C 621.265625 409.09375 637.503906 421.734375 658.894531 421.878906 C 695.710938 422.128906 719.371094 389.617188 706.730469 355.402344 C 693.84375 320.523438 676.667969 315.960938 649.585938 341.902344 C 633.257812 357.539062 619.679688 368.230469 609.851562 335.109375 Z M 609.851562 335.109375 " fill-opacity="1" fill-rule="nonzero"/><path fill="#000000" d="M 212.621094 396.003906 C 228.050781 401.832031 241.515625 406.3125 240.59375 429.316406 C 199.457031 418.640625 162.046875 435.699219 122.945312 441.222656 C 86.300781 446.398438 58.703125 431.722656 45.035156 396.617188 C 33.097656 365.960938 42.335938 339.601562 67.777344 319.835938 C 93.886719 299.554688 137.523438 299.902344 163.019531 319.535156 C 172.886719 327.132812 185.480469 335.585938 173.105469 349.753906 C 162.238281 362.199219 151.847656 357.136719 141.4375 346.410156 C 130.839844 335.488281 121.769531 316.210938 101.863281 327.300781 C 82.808594 337.914062 74.105469 357.445312 76.726562 378.375 C 79.347656 399.28125 91.703125 415.894531 114.066406 420.695312 C 131.894531 424.519531 148.816406 420.472656 164.636719 411.226562 C 178.652344 403.035156 192.476562 393.886719 212.621094 396.003906 Z M 212.621094 396.003906 " fill-opacity="1" fill-rule="nonzero"/></svg>