<svg xmlns="http://www.w3.org/2000/svg" xmlns:xlink="http://www.w3.org/1999/xlink" width="300"  opacity="0.3" zoomAndPan="magnify" viewBox="0 0 810 809.999993" height="300" preserveAspectRatio="xMidYMid meet" version="1.0"><path fill="#ffffff" d="M 104.125 592.609375 C 94.882812 590.605469 88.59375 589.542969 82.789062 587.257812 C 57.609375 577.347656 20.164062 574.519531 17.375 544.726562 C 14.746094 516.683594 48.261719 501.421875 70.761719 486.304688 C 129.957031 446.542969 195.101562 442.417969 262.671875 459.179688 C 273.632812 461.898438 284.566406 465.351562 294.902344 469.863281 C 313.828125 478.125 322.53125 468.484375 329.933594 452.839844 C 338.820312 434.066406 326.574219 429.035156 313.230469 422.417969 C 218.984375 375.703125 178.640625 298.289062 184.785156 194.78125 C 187.003906 157.34375 198.539062 149.421875 232.558594 164.339844 C 311.496094 198.949219 357.226562 259.558594 370.730469 344.535156 C 373.097656 359.4375 375.925781 374.433594 376.339844 389.445312 C 376.996094 413.222656 392.234375 414.132812 409.949219 414.230469 C 429.03125 414.335938 442.109375 409.253906 441.433594 386.898438 C 440.636719 360.375 442.386719 334.195312 450.476562 308.527344 C 471.863281 240.683594 515.976562 193.222656 579.953125 163.972656 C 613.394531 148.679688 625.214844 157.046875 628.0625 193.699219 C 636.289062 299.621094 593.320312 376.527344 498.234375 423.804688 C 485.917969 429.925781 474.746094 434.410156 482.207031 451.214844 C 488.816406 466.109375 496.03125 477.980469 516.1875 470.257812 C 548.023438 458.0625 580.722656 452.070312 615.40625 450.472656 C 682.230469 447.402344 734.351562 475.59375 782.265625 517.300781 C 806.53125 538.429688 802.652344 554.589844 775.457031 568.796875 C 692.097656 612.351562 611.105469 608.105469 532.578125 556.917969 C 518.988281 548.058594 506.667969 537.25 492.335938 526.253906 C 433.621094 573.039062 432.695312 645.84375 406.644531 710.117188 C 382.628906 646.453125 377.835938 576.644531 323.804688 524.980469 C 261.34375 578.324219 192.117188 612.050781 104.125 592.609375 M 212.039062 225.097656 C 216.863281 298.527344 250.960938 353.847656 315.109375 390.027344 C 334.722656 401.089844 347.902344 398.589844 350.914062 372.070312 C 359.222656 298.839844 294.019531 208.515625 219.253906 191.601562 C 209.253906 198.710938 213.128906 209.636719 212.039062 225.097656 M 537.183594 218.1875 C 489.550781 255.226562 466.875 305.410156 462.601562 364.21875 C 461.183594 383.730469 462.632812 405.339844 493.597656 392.984375 C 564.183594 364.828125 614.523438 265.457031 594.921875 191.238281 C 573.042969 189.847656 558.765625 205.867188 537.183594 218.1875 M 178.011719 471.050781 C 127.113281 475.226562 86.039062 496.84375 53.730469 536.640625 C 123.867188 599.867188 265.265625 563.183594 291.371094 497.339844 C 259.234375 474.976562 223.058594 468.667969 178.011719 471.050781 M 739.902344 552.507812 C 759.410156 543.429688 759.105469 532.316406 743.984375 518.710938 C 716.257812 493.757812 684.332031 476.449219 647.378906 472.398438 C 602.800781 467.503906 558.125 467 521.921875 501.464844 C 567.667969 565.835938 649.390625 585.621094 739.902344 552.507812 M 457.339844 464.929688 C 441.289062 442.707031 390.800781 429.316406 371.761719 446.316406 C 356.050781 460.34375 335.46875 481.714844 350.984375 504.125 C 372.835938 535.6875 389.636719 569.6875 408.15625 609.277344 C 422.488281 568.601562 437.066406 535.152344 461.675781 507.574219 C 474.257812 493.476562 465.347656 482.125 457.339844 464.929688 Z M 457.339844 464.929688 " fill-opacity="1" fill-rule="nonzero"/><path fill="#ffffff" d="M 618.648438 334.953125 C 627.21875 325.914062 634.121094 318.117188 642.738281 313.59375 C 673.507812 297.433594 714.742188 303.605469 736.859375 327.628906 C 757.910156 350.484375 761.519531 376.664062 746.707031 404.125 C 728.855469 437.21875 698.960938 449.15625 663.980469 442.027344 C 628.671875 434.828125 594.804688 420.148438 547.460938 429.542969 C 566.277344 395.644531 585.546875 389.34375 611.808594 400.890625 C 630.0625 408.917969 646.296875 421.550781 667.683594 421.695312 C 704.496094 421.945312 728.15625 389.445312 715.515625 355.242188 C 702.632812 320.375 685.457031 315.816406 658.378906 341.746094 C 642.050781 357.378906 628.476562 368.066406 618.648438 334.953125 Z M 618.648438 334.953125 " fill-opacity="1" fill-rule="nonzero"/><path fill="#ffffff" d="M 221.453125 395.828125 C 236.886719 401.65625 250.347656 406.132812 249.425781 429.132812 C 208.292969 418.460938 170.886719 435.511719 131.789062 441.03125 C 95.148438 446.207031 67.554688 431.535156 53.886719 396.445312 C 41.949219 365.796875 51.1875 339.449219 76.628906 319.6875 C 102.734375 299.414062 146.363281 299.761719 171.859375 319.386719 C 181.726562 326.980469 194.316406 335.429688 181.945312 349.597656 C 171.078125 362.039062 160.6875 356.976562 150.28125 346.253906 C 139.683594 335.332031 130.613281 316.0625 110.710938 327.148438 C 91.65625 337.757812 82.953125 357.285156 85.574219 378.207031 C 88.195312 399.105469 100.546875 415.710938 122.914062 420.511719 C 140.738281 424.335938 157.65625 420.289062 173.476562 411.046875 C 187.492188 402.859375 201.3125 393.714844 221.453125 395.828125 Z M 221.453125 395.828125 " fill-opacity="1" fill-rule="nonzero"/></svg>