<svg xmlns="http://www.w3.org/2000/svg" xmlns:xlink="http://www.w3.org/1999/xlink" width="1080" zoomAndPan="magnify" viewBox="0 0 810 809.999993" height="1080" preserveAspectRatio="xMidYMid meet" version="1.0"><defs><clipPath id="c51d892447"><path d="M 480 12.132812 L 809.992188 12.132812 L 809.992188 388 L 480 388 Z M 480 12.132812 " clip-rule="nonzero"/></clipPath><clipPath id="269e6aeff7"><path d="M 580 12.132812 L 809.992188 12.132812 L 809.992188 326 L 580 326 Z M 580 12.132812 " clip-rule="nonzero"/></clipPath><clipPath id="d41d2a66a6"><path d="M 722 12.132812 L 809.992188 12.132812 L 809.992188 43 L 722 43 Z M 722 12.132812 " clip-rule="nonzero"/></clipPath><clipPath id="9781fd4327"><path d="M 192.742188 12.132812 L 691 12.132812 L 691 810 L 192.742188 810 Z M 192.742188 12.132812 " clip-rule="nonzero"/></clipPath><clipPath id="69be594ed6"><path d="M 255 12.132812 L 748 12.132812 L 748 785 L 255 785 Z M 255 12.132812 " clip-rule="nonzero"/></clipPath><clipPath id="a79ec5493b"><path d="M 323 12.132812 L 808 12.132812 L 808 758 L 323 758 Z M 323 12.132812 " clip-rule="nonzero"/></clipPath><clipPath id="96759c7b89"><path d="M 392 12.132812 L 809.992188 12.132812 L 809.992188 463 L 392 463 Z M 392 12.132812 " clip-rule="nonzero"/></clipPath></defs><g clip-path="url(#c51d892447)"><path fill="#dbe2ef" d="M 809.417969 378.394531 L 756.128906 343.089844 C 751.007812 340.671875 743.632812 331.332031 734 315.070312 C 731.027344 308.523438 729.378906 300.484375 729.046875 290.953125 C 728.558594 280.578125 729.707031 270.421875 732.496094 260.480469 L 750.824219 184.480469 C 753.515625 167.105469 754.066406 156.257812 752.480469 151.945312 C 749.332031 130.425781 739.175781 114.082031 722.019531 102.914062 C 712.871094 97.085938 698.3125 89.511719 678.351562 80.191406 C 674.238281 78.113281 625.554688 62.449219 532.292969 33.203125 C 524.128906 30.195312 511.117188 23.277344 493.257812 12.441406 L 480.910156 12.441406 C 499.570312 25.816406 515.359375 34.925781 528.28125 39.773438 C 620.519531 68.816406 672.25 85.648438 683.472656 90.265625 C 710.503906 104.28125 725.9375 114 729.777344 119.425781 C 741.375 134.710938 746.609375 148.488281 745.484375 160.757812 C 745.402344 168.851562 744.136719 179.128906 741.6875 191.59375 C 735.882812 211.511719 729.351562 238.351562 722.089844 272.121094 C 720.691406 286.707031 721.253906 299.578125 723.773438 310.726562 C 723.21875 312.972656 727.738281 320.792969 737.332031 334.191406 C 740.859375 339.496094 745.59375 344.746094 751.53125 349.949219 L 809.414062 387.15625 Z M 809.417969 378.394531 " fill-opacity="1" fill-rule="nonzero"/></g><g clip-path="url(#269e6aeff7)"><path fill="#dbe2ef" d="M 809.417969 125.671875 L 809.085938 124.296875 C 805.289062 108.296875 799.402344 96.097656 791.421875 87.699219 C 785.710938 81.894531 772.917969 73.964844 753.039062 63.910156 L 736.632812 56.1875 L 602.207031 12.441406 L 580.425781 12.441406 L 744.082031 67.277344 C 766.175781 77.960938 782.003906 89.101562 791.566406 100.695312 C 799.746094 111.328125 803.304688 125.535156 802.242188 143.324219 C 801.78125 149.476562 800.621094 157.3125 798.761719 166.835938 C 791.585938 193.109375 785.136719 219.199219 779.410156 245.113281 C 778.578125 257.15625 778.40625 267.0625 778.886719 274.839844 C 779.273438 290.484375 789.449219 307.328125 809.417969 325.363281 L 809.414062 315.046875 C 794.035156 300.644531 786.25 285.152344 786.070312 268.570312 C 786.179688 255.863281 786.5 248.175781 787.03125 245.511719 L 808.316406 157.980469 C 809.417969 157.515625 809.785156 146.746094 809.417969 125.671875 Z M 809.417969 125.671875 " fill-opacity="1" fill-rule="nonzero"/></g><g clip-path="url(#d41d2a66a6)"><path fill="#dbe2ef" d="M 809.417969 34.777344 L 803.550781 32.160156 C 787.582031 25.222656 768.984375 18.648438 747.757812 12.441406 L 722.03125 12.441406 C 775.617188 29.335938 804.746094 39.324219 809.417969 42.402344 Z M 809.417969 34.777344 " fill-opacity="1" fill-rule="nonzero"/></g><g clip-path="url(#9781fd4327)"><path fill="#dbe2ef" d="M 690.726562 674.386719 C 690.726562 628.09375 683.265625 586.207031 659.871094 554.414062 C 638.984375 526.019531 605.570312 505.941406 574.847656 487.417969 C 539.457031 466.082031 508.421875 447.136719 499.019531 420.535156 C 496.605469 413.710938 495.597656 406.304688 495.597656 398.433594 C 495.597656 382.546875 499.714844 364.777344 504.71875 346.097656 C 505.625 342.714844 506.515625 339.464844 507.449219 336.0625 C 508.371094 332.6875 509.285156 329.351562 510.191406 325.96875 C 515.125 307.558594 519.660156 288.667969 519.660156 271.066406 C 519.660156 257.59375 517 244.875 509.832031 233.710938 C 500.488281 219.164062 483.808594 207.757812 463.78125 198.167969 C 437.082031 185.382812 403.417969 175.378906 370.691406 165.644531 C 338.8125 156.160156 307.859375 146.941406 284.230469 135.628906 C 220.9375 105.324219 210.136719 59.898438 200.851562 12.441406 L 192.964844 12.441406 C 202.382812 60.769531 213.351562 110.277344 280.886719 142.609375 C 305.183594 154.242188 336.796875 163.636719 368.484375 173.0625 C 401.378906 182.847656 434.402344 192.683594 460.441406 205.148438 C 480.0625 214.542969 495.152344 225.179688 503.320312 237.894531 C 509.53125 247.566406 511.925781 258.734375 511.925781 270.980469 C 511.925781 287.101562 507.773438 305.082031 502.714844 323.964844 C 501.816406 327.324219 500.90625 330.644531 499.984375 334.019531 C 499.050781 337.421875 498.15625 340.6875 497.246094 344.09375 C 492.332031 362.429688 487.867188 381.105469 487.867188 398.402344 C 487.867188 407.054688 488.984375 415.367188 491.722656 423.113281 C 502.257812 452.925781 536.449219 473.304688 570.851562 494.046875 C 601.902344 512.765625 633.835938 532.085938 653.636719 559 C 675.792969 589.109375 682.984375 629.058594 682.984375 674.058594 C 682.984375 714.773438 677.09375 759.628906 671.070312 805.066406 C 671.046875 805.238281 671.035156 805.410156 671.035156 805.578125 C 671.035156 807.492188 672.453125 809.152344 674.398438 809.410156 C 676.519531 809.691406 678.464844 808.203125 678.742188 806.082031 C 684.667969 761.378906 690.726562 716.09375 690.726562 674.386719 Z M 690.726562 674.386719 " fill-opacity="1" fill-rule="nonzero"/></g><g clip-path="url(#69be594ed6)"><path fill="#dbe2ef" d="M 747.804688 649.628906 C 747.804688 603.339844 740.339844 561.453125 716.949219 529.65625 C 696.058594 501.265625 662.644531 481.183594 631.925781 462.664062 C 596.535156 441.328125 565.496094 422.378906 556.097656 395.78125 C 553.683594 388.953125 552.671875 381.546875 552.671875 373.679688 C 552.671875 357.792969 556.792969 340.023438 561.796875 321.34375 C 562.703125 317.960938 563.59375 314.710938 564.523438 311.304688 C 565.449219 307.929688 566.359375 304.597656 567.265625 301.214844 C 572.199219 282.804688 576.734375 263.914062 576.734375 246.3125 C 576.734375 232.835938 574.078125 220.121094 566.90625 208.957031 C 557.5625 194.40625 540.886719 183 520.859375 173.414062 C 494.15625 160.628906 460.492188 150.625 427.765625 140.886719 C 395.890625 131.40625 364.9375 122.1875 341.304688 110.871094 C 289.132812 85.894531 272.628906 50.640625 263.238281 12.441406 L 255.273438 12.441406 C 264.851562 52.414062 281.953125 91.039062 337.964844 117.851562 C 362.261719 129.488281 393.871094 138.878906 425.558594 148.308594 C 458.457031 158.09375 491.476562 167.925781 517.515625 180.394531 C 537.140625 189.789062 552.230469 200.421875 560.394531 213.136719 C 566.605469 222.808594 569 233.980469 569 246.226562 C 569 262.34375 564.851562 280.328125 559.792969 299.210938 C 558.890625 302.566406 557.984375 305.886719 557.058594 309.261719 C 556.128906 312.667969 555.234375 315.929688 554.320312 319.339844 C 549.40625 337.675781 544.941406 356.351562 544.941406 373.648438 C 544.941406 382.300781 546.058594 390.609375 548.796875 398.359375 C 559.335938 428.171875 593.523438 448.550781 627.929688 469.292969 C 658.980469 488.011719 690.914062 507.328125 710.714844 534.242188 C 732.867188 564.355469 740.058594 604.304688 740.058594 649.300781 C 740.058594 690.019531 734.171875 734.871094 728.148438 780.3125 C 728.125 780.484375 728.113281 780.65625 728.113281 780.824219 C 728.113281 782.734375 729.527344 784.398438 731.476562 784.65625 C 733.59375 784.9375 735.539062 783.445312 735.820312 781.328125 C 741.746094 736.625 747.804688 691.339844 747.804688 649.628906 Z M 747.804688 649.628906 " fill-opacity="1" fill-rule="nonzero"/></g><g clip-path="url(#a79ec5493b)"><path fill="#dbe2ef" d="M 807.796875 622.554688 L 807.636719 611.074219 C 807.507812 564.339844 795.449219 525.867188 771.464844 495.652344 C 766.175781 488.523438 755.0625 478.433594 738.113281 465.382812 L 644.253906 404.117188 C 630.539062 393.601562 621.148438 381.792969 616.085938 368.703125 C 612.359375 357.289062 611.636719 344.429688 613.917969 330.125 C 613.363281 327.121094 619.695312 300.746094 632.917969 251.003906 C 634.945312 241.714844 636.183594 232.601562 636.632812 223.660156 C 637.648438 203.828125 632.648438 187.5625 621.632812 174.859375 C 610.5 162.050781 592.273438 150.484375 566.957031 140.164062 C 560.046875 136.066406 515.789062 121.683594 434.1875 97.015625 C 420.980469 92.738281 406.859375 86.710938 391.824219 78.9375 C 363.808594 64.320312 343.761719 42.15625 331.6875 12.441406 L 323.386719 12.441406 C 335.734375 44.953125 357.148438 69.292969 387.625 85.460938 C 395.03125 90.082031 409.691406 96.367188 431.613281 104.316406 C 513.648438 129.136719 557.757812 143.460938 563.9375 147.289062 C 587.972656 156.566406 606.0625 168.445312 618.203125 182.925781 C 626.390625 194.445312 629.957031 207.878906 628.90625 223.214844 C 628.507812 231.449219 627.335938 240.066406 625.398438 249.066406 C 611.027344 303.074219 604.460938 331.175781 605.707031 333.367188 C 603.8125 352.839844 605.875 367.898438 611.902344 378.542969 C 619.550781 392.492188 631.15625 404.902344 646.722656 415.769531 C 709.261719 454.347656 742.804688 476.601562 747.339844 482.527344 C 766.0625 499.050781 778.492188 515.378906 784.636719 531.519531 C 794.359375 554.910156 799.445312 581.429688 799.894531 611.082031 C 800.476562 621.921875 799.941406 639.625 798.300781 664.191406 C 797.527344 678.253906 794.140625 707.933594 788.136719 753.234375 C 787.9375 754.140625 788.246094 755.15625 789.054688 756.285156 C 792.0625 758.550781 794.3125 757.871094 795.8125 754.25 C 804.183594 694.152344 808.179688 650.253906 807.796875 622.554688 Z M 807.796875 622.554688 " fill-opacity="1" fill-rule="nonzero"/></g><g clip-path="url(#96759c7b89)"><path fill="#dbe2ef" d="M 809.417969 452.035156 L 808.007812 450.851562 L 795.191406 440.625 L 701.332031 379.363281 C 689.136719 370.011719 680.363281 359.644531 675.011719 348.265625 C 669.710938 337.878906 668.4375 322.636719 671.195312 302.53125 C 672.234375 295.136719 678.714844 268.679688 690.640625 223.15625 C 692.71875 212.550781 693.78125 202.816406 693.839844 193.960938 C 692.742188 169.722656 684.875 152.320312 670.234375 141.75 C 656.074219 130.375 639.234375 120.941406 619.71875 113.449219 C 606.636719 107.910156 564.605469 94.460938 493.625 73.101562 C 480.746094 68.710938 468.992188 64.023438 458.371094 59.039062 C 427.652344 42.316406 408.753906 26.785156 401.679688 12.441406 L 392.480469 12.441406 C 404.023438 28.722656 413.167969 39.242188 419.914062 43.996094 C 428.277344 51.113281 437.484375 57.195312 447.527344 62.238281 C 459.304688 68.273438 471.453125 73.507812 483.976562 77.9375 C 561.609375 101.621094 606.136719 115.933594 617.550781 120.871094 C 642.378906 130.78125 660.199219 141.636719 671.011719 153.4375 C 681.6875 165.421875 686.734375 179.085938 686.152344 194.4375 C 685.832031 204.78125 684.605469 214.742188 682.476562 224.3125 C 670.71875 268.492188 664.1875 295.335938 662.878906 304.839844 C 660.746094 323.347656 662.296875 338.734375 667.535156 350.996094 C 674.09375 364.960938 686.183594 378.300781 703.796875 391.011719 C 769.152344 431.027344 804.355469 454.796875 809.414062 462.324219 Z M 809.417969 452.035156 " fill-opacity="1" fill-rule="nonzero"/></g></svg>