<svg xmlns="http://www.w3.org/2000/svg" xmlns:xlink="http://www.w3.org/1999/xlink" width="1080" zoomAndPan="magnify" viewBox="0 0 810 809.999993" height="1080" preserveAspectRatio="xMidYMid meet" version="1.0"><defs><filter x="0%" y="0%" width="100%" height="100%" id="ccb85ceb1c"><feColorMatrix values="0 0 0 0 1 0 0 0 0 1 0 0 0 0 1 0 0 0 1 0" color-interpolation-filters="sRGB"/></filter><mask id="2beebb51bd"><g filter="url(#ccb85ceb1c)"><rect x="-81" width="972" fill="#000000" y="-80.999999" height="971.999992" fill-opacity="0.4"/></g></mask><clipPath id="87d7ac833a"><path d="M 0 0 L 810 0 L 810 707.730469 L 0 707.730469 Z M 0 0 " clip-rule="nonzero"/></clipPath><clipPath id="1ce1d1141f"><rect x="0" width="810" y="0" height="708"/></clipPath></defs><g mask="url(#2beebb51bd)"><g transform="matrix(1, 0, 0, 1, 0, 0.000000000000039746)"><g clip-path="url(#1ce1d1141f)"><g clip-path="url(#87d7ac833a)"><path fill="#18216d" d="M 0 0.046875 L 3.476562 0.046875 C 26.363281 28.542969 36.917969 68.578125 34.890625 119.511719 C 31.300781 211.003906 67.710938 333.070312 182.238281 375.988281 C 239.230469 397.359375 292.484375 378.839844 343.964844 360.933594 C 368.773438 352.304688 394.417969 343.382812 420.050781 339.113281 C 448.871094 334.316406 474.667969 336.035156 498.917969 344.371094 C 522.449219 352.445312 543.929688 365.742188 562.765625 383.859375 C 580.265625 400.710938 595.074219 421.269531 606.710938 444.960938 C 620.859375 473.726562 626.1875 504.121094 631.335938 533.515625 C 635.355469 556.402344 639.503906 580.085938 647.796875 602.902344 C 667.265625 656.46875 710.144531 689.511719 775.242188 701.0625 C 786.75 703.085938 798.335938 704.410156 810 705.039062 L 810 707.699219 C 798.175781 707.09375 786.433594 705.765625 774.773438 703.722656 C 744.105469 698.273438 717.878906 687.851562 696.824219 672.757812 C 673.039062 655.707031 655.691406 632.503906 645.277344 603.839844 C 636.902344 580.800781 632.710938 557.007812 628.695312 533.996094 C 623.574219 504.789062 618.285156 474.589844 604.304688 446.167969 C 580.355469 397.480469 542.625 362.253906 498.054688 346.917969 C 444.929688 328.667969 394.058594 346.367188 344.863281 363.476562 C 292.929688 381.542969 239.226562 400.226562 181.300781 378.515625 C 168.558594 373.769531 156.390625 367.847656 144.796875 360.738281 C 133.203125 353.632812 122.398438 345.476562 112.390625 336.273438 C 93.664062 319.046875 77.765625 298.183594 65.140625 274.273438 C 53.183594 251.621094 44.289062 226.515625 38.710938 199.636719 C 33.265625 173.160156 31.101562 146.421875 32.210938 119.414062 C 34.230469 68.144531 23.40625 28.128906 0 0.046875 Z M 0 0.046875 " fill-opacity="1" fill-rule="nonzero"/></g><path fill="#18216d" d="M 80.902344 0.046875 L 83.683594 0.046875 C 88.496094 19.417969 90.421875 41.355469 89.46875 65.851562 C 85.878906 157.339844 122.285156 279.40625 236.8125 322.328125 C 293.804688 343.691406 347.0625 325.175781 398.542969 307.265625 C 423.34375 298.636719 448.992188 289.714844 474.625 285.453125 C 503.441406 280.652344 529.242188 282.371094 553.492188 290.703125 C 577.019531 298.78125 598.503906 312.082031 617.339844 330.195312 C 634.84375 347.039062 649.628906 367.597656 661.28125 391.292969 C 675.433594 420.054688 680.757812 450.449219 685.914062 479.84375 C 689.925781 502.730469 694.078125 526.414062 702.371094 549.234375 C 719.792969 597.160156 755.953125 628.664062 810 643.023438 L 810 645.800781 C 787.527344 639.859375 767.871094 630.902344 751.386719 619.078125 C 727.605469 602.027344 710.253906 578.828125 699.839844 550.164062 C 691.464844 527.125 687.273438 503.332031 683.261719 480.320312 C 678.144531 451.109375 672.847656 420.910156 658.867188 392.488281 C 634.917969 343.804688 597.1875 308.574219 552.617188 293.242188 C 499.5 274.992188 448.625 292.6875 399.425781 309.800781 C 347.492188 327.863281 293.789062 346.546875 235.863281 324.839844 C 223.117188 320.097656 210.949219 314.171875 199.351562 307.066406 C 187.753906 299.960938 176.949219 291.808594 166.9375 282.609375 C 148.210938 265.375 132.308594 244.515625 119.6875 220.609375 C 107.726562 197.953125 98.832031 172.84375 93.253906 145.972656 C 87.8125 119.492188 85.648438 92.75 86.757812 65.742188 C 87.734375 41.25 85.78125 19.351562 80.902344 0.046875 Z M 80.902344 0.046875 " fill-opacity="1" fill-rule="nonzero"/><path fill="#18216d" d="M 141.355469 12.082031 C 141.519531 7.996094 141.597656 3.984375 141.59375 0.046875 L 144.289062 0.046875 C 144.289062 4.015625 144.207031 8.0625 144.046875 12.183594 C 140.457031 103.675781 176.863281 225.742188 291.390625 268.660156 C 348.378906 290.03125 401.640625 271.511719 453.121094 253.605469 C 477.921875 244.976562 503.574219 236.054688 529.203125 231.785156 C 558.019531 226.988281 583.820312 228.707031 608.070312 237.042969 C 631.597656 245.117188 653.078125 258.414062 671.917969 276.53125 C 689.417969 293.382812 704.230469 313.941406 715.863281 337.632812 C 730.007812 366.398438 735.339844 396.792969 740.492188 426.1875 C 744.503906 449.074219 748.65625 472.757812 756.949219 495.574219 C 767.632812 525 785.316406 548.179688 810 565.105469 L 810 568.25 C 808.632812 567.332031 807.285156 566.398438 805.960938 565.449219 C 782.175781 548.394531 764.828125 525.195312 754.410156 496.527344 C 746.035156 473.488281 741.84375 449.695312 737.832031 426.683594 C 732.710938 397.480469 727.414062 367.277344 713.4375 338.859375 C 689.492188 290.167969 651.757812 254.941406 607.1875 239.609375 C 554.066406 221.359375 503.191406 239.054688 453.996094 256.167969 C 402.0625 274.234375 348.359375 292.914062 290.4375 271.203125 C 277.691406 266.460938 265.523438 260.535156 253.929688 253.429688 C 242.335938 246.324219 231.535156 238.167969 221.523438 228.964844 C 202.796875 211.738281 186.898438 190.875 174.273438 166.964844 C 162.3125 144.3125 153.425781 119.203125 147.839844 92.328125 C 142.40625 65.84375 140.242188 39.09375 141.355469 12.082031 Z M 141.355469 12.082031 " fill-opacity="1" fill-rule="nonzero"/><path fill="#18216d" d="M 196.820312 0.046875 L 199.695312 0.046875 C 207.246094 83.839844 248.085938 178.320312 345.949219 215 C 402.941406 236.363281 456.199219 217.847656 507.679688 199.9375 C 532.480469 191.308594 558.132812 182.386719 583.765625 178.125 C 612.578125 173.328125 638.378906 175.046875 662.628906 183.375 C 686.160156 191.453125 707.640625 204.753906 726.476562 222.863281 C 743.980469 239.710938 758.789062 260.269531 770.425781 283.960938 C 784.574219 312.726562 789.898438 343.121094 795.050781 372.515625 C 798.78125 394.007812 802.691406 416.164062 810 437.664062 L 810 445.609375 C 809.648438 444.691406 809.304688 443.769531 808.96875 442.84375 C 800.59375 419.804688 796.402344 396.011719 792.390625 373 C 787.269531 343.789062 781.976562 313.589844 767.996094 285.171875 C 744.050781 236.484375 706.316406 201.253906 661.746094 185.925781 C 608.625 167.671875 557.75 185.367188 508.554688 202.484375 C 456.621094 220.546875 402.917969 239.226562 344.996094 217.519531 C 332.253906 212.773438 320.085938 206.847656 308.492188 199.742188 C 296.898438 192.636719 286.097656 184.480469 276.085938 175.28125 C 257.355469 158.046875 241.460938 137.1875 228.835938 113.28125 C 216.878906 90.625 207.984375 65.515625 202.40625 38.644531 C 199.765625 25.890625 197.902344 13.023438 196.820312 0.046875 Z M 196.820312 0.046875 " fill-opacity="1" fill-rule="nonzero"/><path fill="#18216d" d="M 260.492188 0.046875 L 263.632812 0.046875 C 281.484375 67.359375 323.207031 132.371094 400.503906 161.332031 C 457.496094 182.703125 510.753906 164.183594 562.234375 146.277344 C 587.042969 137.648438 612.6875 128.726562 638.320312 124.457031 C 667.140625 119.660156 692.933594 121.378906 717.183594 129.710938 C 740.71875 137.789062 762.199219 151.085938 781.03125 169.203125 C 791.976562 179.789062 801.632812 191.445312 810 204.164062 L 810 209.140625 C 786.332031 172.023438 753.730469 145.113281 716.308594 132.257812 C 663.191406 114.007812 612.320312 131.707031 563.117188 148.816406 C 511.183594 166.882812 457.484375 185.566406 399.5625 163.855469 C 386.816406 159.109375 374.648438 153.183594 363.054688 146.078125 C 351.460938 138.972656 340.660156 130.816406 330.652344 121.613281 C 311.917969 104.386719 296.023438 83.523438 283.402344 59.613281 C 273.464844 40.640625 265.828125 20.785156 260.492188 0.046875 Z M 260.492188 0.046875 " fill-opacity="1" fill-rule="nonzero"/><path fill="#18216d" d="M 334.949219 0.046875 L 338.285156 0.046875 C 361.355469 46.355469 398.78125 86.574219 455.070312 107.671875 C 512.0625 129.035156 565.316406 110.519531 616.796875 92.609375 C 641.605469 83.960938 667.25 75.058594 692.875 70.796875 C 721.695312 65.996094 747.488281 67.71875 771.742188 76.050781 C 785.304688 80.71875 798.058594 87.023438 810 94.964844 L 810 98.292969 C 797.84375 89.964844 784.800781 83.394531 770.878906 78.578125 C 717.753906 60.328125 666.882812 78.019531 617.683594 95.136719 C 565.753906 113.222656 512.027344 131.898438 454.136719 110.191406 C 441.394531 105.445312 429.226562 99.519531 417.632812 92.414062 C 406.042969 85.308594 395.238281 77.152344 385.226562 67.949219 C 366.496094 50.71875 350.601562 29.859375 337.980469 5.953125 C 336.941406 3.996094 335.929688 2.027344 334.949219 0.046875 Z M 334.949219 0.046875 " fill-opacity="1" fill-rule="nonzero"/><path fill="#18216d" d="M 425.6875 0.046875 L 429.394531 0.046875 C 450.300781 22.828125 476.746094 41.679688 509.636719 54.003906 C 566.648438 75.375 619.882812 56.851562 671.367188 38.949219 C 696.167969 30.320312 721.816406 21.398438 747.449219 17.128906 C 769.886719 13.390625 790.527344 13.609375 810 17.828125 L 810 20.589844 C 762.433594 10.117188 716.660156 26.042969 672.234375 41.488281 C 620.296875 59.554688 566.597656 78.234375 508.671875 56.527344 C 495.929688 51.78125 483.765625 45.855469 472.175781 38.75 C 460.585938 31.640625 449.785156 23.488281 439.777344 14.285156 C 434.886719 9.78125 430.191406 5.035156 425.6875 0.046875 Z M 425.6875 0.046875 " fill-opacity="1" fill-rule="nonzero"/><path fill="#18216d" d="M 556.121094 0.046875 L 563.421875 0.046875 L 564.199219 0.339844 C 604.65625 15.5 643.210938 10.582031 680.582031 0.046875 L 690.183594 0.046875 C 649.625 12.410156 607.6875 19.507812 563.269531 2.863281 C 560.855469 1.964844 558.472656 1.027344 556.121094 0.046875 Z M 556.121094 0.046875 " fill-opacity="1" fill-rule="nonzero"/></g></g></g></svg>