<svg xmlns="http://www.w3.org/2000/svg" xmlns:xlink="http://www.w3.org/1999/xlink" width="1080" zoomAndPan="magnify" viewBox="0 0 810 809.999993" height="1080" preserveAspectRatio="xMidYMid meet" version="1.0"><defs><clipPath id="25344a07d6"><path d="M 247 0.00390625 L 332 0.00390625 L 332 81 L 247 81 Z M 247 0.00390625 " clip-rule="nonzero"/></clipPath><clipPath id="4c309af1c1"><path d="M 731 677.050781 L 809.851562 677.050781 L 809.851562 752.253906 L 731 752.253906 Z M 731 677.050781 " clip-rule="nonzero"/></clipPath><clipPath id="9a47af1968"><path d="M 731 676 L 809.851562 676 L 809.851562 752.253906 L 731 752.253906 Z M 731 676 " clip-rule="nonzero"/></clipPath><clipPath id="e04fe2d2d0"><path d="M 0.222656 43 L 81 43 L 81 120 L 0.222656 120 Z M 0.222656 43 " clip-rule="nonzero"/></clipPath><clipPath id="26f69ff52d"><path d="M 0.222656 42.1875 L 82 42.1875 L 82 121 L 0.222656 121 Z M 0.222656 42.1875 " clip-rule="nonzero"/></clipPath></defs><path fill="#ffffff" d="M 516.378906 54.257812 C 479.527344 61.0625 476.445312 59.398438 463.402344 25.660156 C 470.503906 60.996094 468.765625 63.945312 433.578125 76.460938 C 470.429688 69.65625 473.511719 71.3125 486.554688 105.058594 C 479.453125 69.722656 481.191406 66.765625 516.378906 54.257812 " fill-opacity="1" fill-rule="nonzero"/><path fill="#ffffff" d="M 467.792969 49.140625 C 467.792969 61.707031 461.894531 66.75 444.726562 73.472656 C 468.386719 69.855469 474.445312 73.207031 483.53125 94.679688 C 479.691406 71.808594 483.0625 65.925781 505.234375 57.25 C 481.570312 60.867188 475.515625 57.511719 466.425781 36.042969 C 467.292969 41.199219 467.792969 45.492188 467.792969 49.140625 Z M 433.222656 75.464844 C 468.023438 63.097656 469.382812 60.773438 462.363281 25.867188 L 464.382812 25.28125 C 477.285156 58.648438 479.707031 59.960938 516.183594 53.21875 L 516.726562 55.253906 C 481.941406 67.621094 480.574219 69.9375 487.59375 104.855469 L 485.574219 105.4375 C 472.671875 72.0625 470.25 70.761719 433.769531 77.5 L 433.222656 75.464844 " fill-opacity="1" fill-rule="nonzero"/><path fill="#ffffff" d="M 354.582031 274.058594 C 318.25 283.03125 315.058594 281.554688 299.875 248.640625 C 309.226562 283.492188 307.6875 286.546875 273.371094 301.105469 C 309.714844 292.140625 312.894531 293.617188 328.085938 326.523438 C 318.726562 291.671875 320.265625 288.625 354.582031 274.058594 " fill-opacity="1" fill-rule="nonzero"/><path fill="#ffffff" d="M 305.839844 274.066406 C 305.839844 285.03125 299.976562 290.222656 284.289062 297.472656 C 307.6875 292.457031 313.949219 295.4375 324.394531 316.324219 C 319.089844 293.742188 322.089844 287.667969 343.675781 277.699219 C 320.277344 282.707031 314.015625 279.726562 303.566406 258.839844 C 305.015625 265.011719 305.839844 269.945312 305.839844 274.066406 Z M 272.960938 300.132812 C 306.886719 285.742188 308.097656 283.351562 298.863281 248.921875 L 300.832031 248.203125 C 315.851562 280.753906 318.355469 281.917969 354.335938 273.035156 L 354.996094 275.03125 C 321.074219 289.421875 319.863281 291.820312 329.101562 326.25 L 327.121094 326.96875 C 312.101562 294.417969 309.605469 293.253906 273.625 302.128906 L 272.960938 300.132812 " fill-opacity="1" fill-rule="nonzero"/><g clip-path="url(#25344a07d6)"><path fill="#ffffff" d="M 331.167969 50.691406 C 295.773438 38.734375 293.976562 35.8125 300.476562 0.367188 C 288.011719 34.3125 284.964844 36.023438 247.996094 29.796875 C 283.398438 41.75 285.179688 44.675781 278.683594 80.121094 C 291.152344 46.175781 294.207031 44.46875 331.167969 50.691406 " fill-opacity="1" fill-rule="nonzero"/><path fill="#ffffff" d="M 297.625 10.796875 C 288.910156 32.410156 282.921875 35.851562 259.191406 32.613281 C 281.511719 40.945312 284.980469 46.769531 281.535156 69.691406 C 290.253906 48.078125 296.242188 44.636719 319.972656 47.882812 C 297.652344 39.542969 294.183594 33.726562 297.625 10.796875 Z M 247.65625 30.792969 L 248.175781 28.757812 C 284.765625 34.921875 287.164062 33.578125 299.488281 0.00390625 L 301.515625 0.554688 C 295.097656 35.570312 296.5 37.871094 331.496094 49.695312 L 330.988281 51.738281 C 294.398438 45.566406 292 46.910156 279.675781 80.484375 L 277.648438 79.929688 C 284.066406 44.914062 282.664062 42.617188 247.65625 30.792969 " fill-opacity="1" fill-rule="nonzero"/></g><path fill="#ffffff" d="M 769.84375 521.203125 C 733.484375 512.289062 731.433594 509.527344 734.648438 473.671875 C 725.351562 508.539062 722.46875 510.5 685.082031 507.417969 C 721.441406 516.332031 723.484375 519.101562 720.269531 554.957031 C 729.570312 520.089844 732.457031 518.128906 769.84375 521.203125 " fill-opacity="1" fill-rule="nonzero"/><path fill="#ffffff" d="M 732.769531 484.285156 C 726.078125 506.554688 720.425781 510.5 696.5 509.28125 C 719.496094 515.691406 723.484375 521.1875 722.148438 544.335938 C 728.847656 522.066406 734.5 518.121094 758.425781 519.347656 C 735.429688 512.9375 731.433594 507.417969 732.769531 484.285156 Z M 684.824219 508.449219 L 685.164062 506.371094 C 722.171875 509.414062 724.4375 507.871094 733.625 473.398438 L 735.703125 473.761719 C 732.53125 509.191406 734.128906 511.355469 770.089844 520.179688 L 769.753906 522.257812 C 732.742188 519.207031 730.484375 520.75 721.292969 555.230469 L 719.222656 554.859375 C 722.394531 519.429688 720.789062 517.265625 684.824219 508.449219 " fill-opacity="1" fill-rule="nonzero"/><g clip-path="url(#4c309af1c1)"><path fill="#ffffff" d="M 809.332031 697.21875 C 774.1875 709.824219 770.855469 708.679688 752.128906 677.496094 C 765.269531 711.199219 764.078125 714.390625 731.558594 732.359375 C 766.714844 719.746094 770.035156 720.890625 788.769531 752.074219 C 775.621094 718.367188 776.820312 715.179688 809.332031 697.21875 " fill-opacity="1" fill-rule="nonzero"/></g><g clip-path="url(#9a47af1968)"><path fill="#ffffff" d="M 761.027344 705.039062 C 761.027344 714.160156 755.457031 719.636719 741.988281 727.636719 C 764.71875 720.273438 771.277344 722.585938 783.957031 742.285156 C 776.210938 720.371094 778.535156 714.042969 798.902344 701.933594 C 776.171875 709.296875 769.621094 706.984375 756.933594 687.292969 C 759.5625 694.714844 761.027344 700.359375 761.027344 705.039062 Z M 731.046875 731.4375 C 763.195312 713.671875 764.132812 711.175781 751.140625 677.882812 L 753.027344 676.953125 C 771.566406 707.808594 774.175781 708.714844 808.980469 696.222656 L 809.84375 698.140625 C 777.703125 715.898438 776.765625 718.402344 789.75 751.695312 L 787.863281 752.617188 C 769.332031 721.761719 766.722656 720.867188 731.917969 733.347656 L 731.046875 731.4375 " fill-opacity="1" fill-rule="nonzero"/></g><path fill="#ffffff" d="M 534.480469 262.054688 C 501.070312 245.667969 499.710938 242.535156 511.089844 208.246094 C 494.003906 240.277344 490.738281 241.578125 454.984375 230.671875 C 488.390625 247.058594 489.75 250.1875 478.367188 284.480469 C 495.460938 252.4375 498.722656 251.136719 534.480469 262.054688 " fill-opacity="1" fill-rule="nonzero"/><path fill="#ffffff" d="M 506.804688 218.238281 C 495.15625 238.523438 488.738281 241.160156 465.652344 234.882812 C 486.621094 246.011719 489.257812 252.234375 482.65625 274.484375 C 494.308594 254.195312 500.726562 251.566406 523.8125 257.835938 C 502.84375 246.710938 500.207031 240.492188 506.804688 218.238281 Z M 454.511719 231.617188 L 455.289062 229.65625 C 490.691406 240.46875 493.253906 239.445312 510.167969 207.742188 L 512.09375 208.574219 C 500.847656 242.445312 501.921875 244.898438 534.941406 261.105469 L 534.175781 263.058594 C 498.773438 252.257812 496.203125 253.277344 479.296875 284.972656 L 477.367188 284.148438 C 488.605469 250.28125 487.542969 247.816406 454.511719 231.617188 " fill-opacity="1" fill-rule="nonzero"/><path fill="#ffffff" d="M 417.683594 480.121094 C 380.421875 484.339844 377.472656 482.46875 367.015625 447.90625 C 371.421875 483.648438 369.460938 486.476562 333.425781 496.492188 C 370.691406 492.273438 373.640625 494.144531 384.09375 528.714844 C 379.6875 492.976562 381.648438 490.148438 417.683594 480.121094 " fill-opacity="1" fill-rule="nonzero"/><path fill="#ffffff" d="M 369.75 467.863281 C 369.75 483.292969 364.074219 488.261719 344.769531 494.292969 C 368.648438 492.332031 374.429688 496.097656 381.863281 518.152344 C 379.769531 495.078125 383.566406 489.441406 406.332031 482.332031 C 382.464844 484.285156 376.679688 480.519531 369.25 458.460938 C 369.5625 461.980469 369.75 465.09375 369.75 467.863281 Z M 333.144531 495.480469 C 368.785156 485.570312 370.320312 483.351562 365.96875 448.039062 L 368.019531 447.601562 C 378.359375 481.785156 380.675781 483.253906 417.570312 479.078125 L 417.964844 481.136719 C 382.324219 491.046875 380.792969 493.28125 385.140625 528.585938 L 383.082031 529.011719 C 372.75 494.835938 370.433594 493.363281 333.539062 497.546875 L 333.144531 495.480469 " fill-opacity="1" fill-rule="nonzero"/><path fill="#ffffff" d="M 616.367188 496.105469 C 587.0625 473.621094 586.386719 470.292969 604.703125 438.886719 C 581.261719 466.988281 577.792969 467.640625 545.042969 450.074219 C 574.347656 472.550781 575.023438 475.878906 556.703125 507.285156 C 580.148438 479.183594 583.617188 478.539062 616.367188 496.105469 " fill-opacity="1" fill-rule="nonzero"/><path fill="#ffffff" d="M 598.375 447.90625 C 582.738281 465.515625 575.890625 466.824219 554.566406 456.230469 C 572.808594 471.167969 574.125 477.765625 563.027344 498.265625 C 578.667969 480.667969 585.511719 479.347656 606.851562 489.953125 C 588.59375 475.015625 587.285156 468.40625 598.375 447.90625 Z M 544.402344 450.90625 L 545.539062 449.144531 C 577.964844 466.535156 580.691406 466.027344 603.894531 438.210938 L 605.617188 439.421875 C 587.515625 470.441406 588.050781 473.054688 617.011719 495.265625 L 615.875 497.027344 C 583.445312 479.636719 580.71875 480.148438 557.515625 507.96875 L 555.796875 506.757812 C 573.886719 475.738281 573.359375 473.128906 544.402344 450.90625 " fill-opacity="1" fill-rule="nonzero"/><path fill="#ffffff" d="M 708.308594 336.1875 C 671.320312 342.261719 668.273438 340.539062 655.964844 306.542969 C 662.300781 342.011719 660.496094 344.929688 625.050781 356.734375 C 662.035156 350.664062 665.085938 352.386719 677.394531 386.386719 C 671.058594 350.910156 672.863281 347.992188 708.308594 336.1875 " fill-opacity="1" fill-rule="nonzero"/><path fill="#ffffff" d="M 659.851562 329.191406 C 659.851562 342.433594 653.988281 347.433594 636.257812 353.96875 C 659.992188 350.828125 665.976562 354.296875 674.59375 375.941406 C 671.246094 353.003906 674.742188 347.1875 697.101562 338.957031 C 673.355469 342.09375 667.382812 338.632812 658.765625 316.984375 C 659.457031 321.726562 659.851562 325.742188 659.851562 329.191406 Z M 624.714844 355.730469 C 659.769531 344.054688 661.179688 341.765625 654.925781 306.726562 L 656.953125 306.179688 C 669.128906 339.804688 671.519531 341.15625 708.132812 335.148438 L 708.644531 337.183594 C 673.585938 348.859375 672.171875 351.148438 678.433594 386.199219 L 676.398438 386.742188 C 664.226562 353.117188 661.832031 351.765625 625.214844 357.773438 L 624.714844 355.730469 " fill-opacity="1" fill-rule="nonzero"/><path fill="#ffffff" d="M 146.484375 424.253906 C 131.957031 391.074219 133.019531 387.835938 164.78125 368.664062 C 130.179688 382.589844 126.800781 381.566406 106.804688 351.117188 C 121.328125 384.296875 120.265625 387.53125 88.503906 406.703125 C 123.109375 392.78125 126.488281 393.8125 146.484375 424.253906 " fill-opacity="1" fill-rule="nonzero"/><path fill="#ffffff" d="M 116.847656 379.171875 C 116.847656 387.789062 111.425781 393.375 98.722656 401.605469 C 121.140625 393.382812 127.789062 395.449219 141.277344 414.648438 C 132.632812 393.054688 134.691406 386.636719 154.558594 373.765625 C 132.140625 381.988281 125.5 379.929688 112.011719 360.722656 C 115.125 368.507812 116.847656 374.324219 116.847656 379.171875 Z M 87.960938 405.808594 C 119.34375 386.847656 120.183594 384.3125 105.839844 351.535156 L 107.683594 350.53125 C 127.476562 380.667969 130.128906 381.46875 164.386719 367.683594 L 165.324219 369.5625 C 133.933594 388.511719 133.101562 391.050781 147.445312 423.832031 L 145.601562 424.839844 C 125.8125 394.699219 123.160156 393.902344 88.902344 407.683594 L 87.960938 405.808594 " fill-opacity="1" fill-rule="nonzero"/><g clip-path="url(#e04fe2d2d0)"><path fill="#ffffff" d="M 80.660156 66.351562 C 44.730469 76.75 41.484375 75.398438 24.910156 43.117188 C 35.75 77.566406 34.34375 80.679688 0.675781 96.582031 C 36.597656 86.183594 39.847656 87.535156 56.429688 119.816406 C 45.589844 85.367188 46.996094 82.253906 80.660156 66.351562 " fill-opacity="1" fill-rule="nonzero"/></g><g clip-path="url(#26f69ff52d)"><path fill="#ffffff" d="M 31.984375 69.507812 C 31.984375 79.660156 26.203125 84.957031 11.414062 92.519531 C 34.589844 86.589844 40.972656 89.316406 52.304688 109.765625 C 46.050781 87.421875 48.777344 81.234375 69.917969 70.414062 C 46.742188 76.347656 40.363281 73.628906 29.027344 53.171875 C 30.914062 59.894531 31.984375 65.148438 31.984375 69.507812 Z M 0.222656 95.632812 C 33.511719 79.90625 34.613281 77.46875 23.894531 43.433594 L 25.839844 42.632812 C 42.25 74.566406 44.796875 75.628906 80.363281 65.339844 L 81.113281 67.300781 C 47.828125 83.027344 46.726562 85.46875 57.4375 119.503906 L 55.492188 120.300781 C 39.085938 88.367188 36.542969 87.304688 0.964844 97.59375 L 0.222656 95.632812 " fill-opacity="1" fill-rule="nonzero"/></g></svg>