<svg xmlns="http://www.w3.org/2000/svg" xmlns:xlink="http://www.w3.org/1999/xlink" width="1080" zoomAndPan="magnify" viewBox="0 0 810 809.999993" height="1080" preserveAspectRatio="xMidYMid meet" version="1.0"><path fill="#ffffff" d="M 263.953125 5.675781 C 263.074219 2.15625 259.726562 0.0429688 256.207031 0.921875 C 253.917969 1.449219 251.980469 3.386719 251.453125 5.675781 C 240.183594 47.9375 212.359375 125.945312 151.082031 173.664062 C 108.46875 206.769531 58.636719 229.660156 5.8125 240.398438 C 2.289062 241.105469 0 244.449219 0.703125 247.972656 C 1.234375 250.4375 2.992188 252.199219 5.28125 252.902344 C 48.246094 264.875 122.910156 291.113281 160.765625 335.664062 C 190.703125 370.878906 217.292969 459.101562 228.914062 502.242188 C 229.96875 505.585938 233.492188 507.699219 236.835938 506.644531 C 238.949219 506.117188 240.710938 504.355469 241.238281 502.242188 C 253.214844 458.394531 284.203125 367.710938 342.136719 329.148438 C 393.90625 294.636719 451.488281 277.378906 484.0625 269.628906 C 487.585938 268.75 489.523438 265.230469 488.640625 261.707031 C 488.113281 259.59375 486.527344 257.832031 484.414062 257.304688 C 445.148438 245.683594 372.070312 219.445312 342.136719 180.179688 C 295.648438 119.253906 273.464844 45.824219 263.953125 5.675781 Z M 589.539062 367.535156 C 589.011719 365.421875 586.898438 364.191406 584.785156 364.71875 C 583.375 365.070312 582.320312 366.125 581.96875 367.535156 C 575.101562 393.421875 558.019531 441.140625 520.511719 470.195312 C 494.453125 490.445312 463.988281 504.355469 431.589844 510.871094 C 429.476562 511.222656 428.066406 513.335938 428.59375 515.449219 C 428.949219 516.855469 430.003906 518.089844 431.414062 518.441406 C 457.648438 525.835938 503.433594 541.683594 526.5 568.980469 C 544.8125 590.460938 561.011719 644.519531 568.234375 670.933594 C 568.761719 673.046875 571.050781 674.277344 572.988281 673.75 C 574.394531 673.398438 575.277344 672.339844 575.804688 670.933594 C 583.199219 644.167969 602.042969 588.699219 637.433594 565.105469 C 669.128906 543.972656 704.347656 533.410156 724.246094 528.65625 C 726.359375 528.125 727.589844 526.011719 727.0625 523.898438 C 726.710938 522.492188 725.652344 521.433594 724.421875 521.082031 C 700.296875 513.863281 655.746094 498.015625 637.433594 473.890625 C 608.910156 437.089844 595.351562 392.1875 589.539062 367.535156 Z M 718.257812 73.117188 C 717.90625 71.710938 716.496094 70.828125 715.089844 71.179688 C 714.207031 71.355469 713.503906 72.0625 713.152344 73.117188 C 708.574219 90.375 697.304688 121.894531 672.300781 141.261719 C 655.042969 154.644531 634.792969 163.980469 613.3125 168.378906 C 611.902344 168.734375 611.023438 169.964844 611.199219 171.375 C 611.375 172.429688 612.078125 173.136719 613.132812 173.3125 C 630.566406 178.242188 660.855469 188.808594 676.351562 206.945312 C 688.5 221.207031 699.242188 257.128906 703.996094 274.5625 C 704.347656 275.96875 705.757812 276.675781 707.164062 276.320312 C 708.046875 276.144531 708.75 275.441406 708.925781 274.5625 C 713.855469 256.777344 726.359375 219.972656 749.953125 204.300781 C 770.910156 190.214844 794.328125 183.347656 807.710938 180.179688 C 809.121094 179.828125 810 178.417969 809.648438 177.007812 C 809.472656 176.128906 808.765625 175.425781 807.886719 175.070312 C 791.863281 170.316406 762.28125 159.753906 750.128906 143.730469 C 731.289062 119.253906 722.132812 89.492188 718.257812 73.117188 Z M 718.257812 73.117188 " fill-opacity="1" fill-rule="nonzero"/></svg>