<svg xmlns="http://www.w3.org/2000/svg" xmlns:xlink="http://www.w3.org/1999/xlink" width="1080" zoomAndPan="magnify" viewBox="0 0 810 809.999993" height="1080" preserveAspectRatio="xMidYMid meet" version="1.0"><defs><clipPath id="a15d6fe2fc"><path d="M 0 0 L 796.5 0 L 796.5 611.25 L 0 611.25 Z M 0 0 " clip-rule="nonzero"/></clipPath></defs><g clip-path="url(#a15d6fe2fc)"><path fill="#ffffff" d="M 384.835938 150.863281 C 380.789062 146.964844 374.011719 146.957031 369.964844 150.863281 C 366.328125 154.378906 363.140625 158.464844 364.652344 163.769531 C 366.285156 169.480469 371.828125 171.503906 377.402344 171.519531 C 384.777344 171.542969 388.109375 165.566406 387.460938 160.097656 C 388.160156 156.851562 387.414062 153.347656 384.835938 150.863281 Z M 376.886719 151.246094 C 375.875 151.144531 375.230469 150.835938 376.886719 151.246094 Z M 71.34375 514.855469 L 66.859375 514.855469 C 53.296875 514.855469 53.296875 494.605469 66.859375 494.605469 L 71.34375 494.605469 C 84.910156 494.605469 84.910156 514.855469 71.34375 514.855469 Z M 673.8125 247.222656 C 660.25 247.222656 660.25 226.972656 673.8125 226.972656 C 687.375 226.972656 687.375 247.222656 673.8125 247.222656 Z M 44.4375 221.171875 C 51.875 228.804688 60.085938 235.695312 69.101562 241.808594 C 59.339844 238.371094 49.515625 235.730469 39.285156 234.3125 C 31.078125 254.347656 21.507812 274.429688 18.695312 279.847656 L 18.695312 275.347656 C 18.695312 261.269531 19.960938 247.191406 21.179688 233.117188 C 14.378906 233.136719 7.359375 233.667969 0 234.847656 C 6.621094 228.476562 14.304688 222.117188 22.519531 216.214844 C 23.015625 208.925781 23.367188 201.636719 23.367188 194.351562 C 26.519531 199.40625 29.941406 204.203125 33.566406 208.800781 C 39.414062 205.132812 45.402344 201.742188 51.410156 198.851562 C 50.171875 204.808594 47.605469 212.679688 44.4375 221.171875 Z M 389.828125 359.609375 C 396.089844 366.789062 401.792969 374.507812 406.367188 383.316406 C 397.195312 381.105469 386.894531 377.808594 376.574219 373.964844 L 359.632812 392.316406 C 359.632812 384.273438 360.59375 376.230469 362.042969 368.191406 C 356.34375 365.792969 350.789062 363.308594 345.609375 360.816406 C 350.929688 359.109375 357.59375 357.40625 364.582031 355.945312 C 365.945312 350.066406 367.453125 344.191406 368.980469 338.316406 C 373.914062 343.070312 378.84375 347.832031 383.574219 352.78125 C 388.496094 352.1875 393.132812 351.816406 397.019531 351.816406 L 389.828125 359.605469 Z M 796.5 403.824219 C 786.414062 401.882812 777.339844 399.945312 767.746094 398.496094 C 765.699219 404.121094 763.425781 409.75 760.503906 415.375 C 763.1875 410.207031 763.886719 404.203125 763.535156 397.921875 C 755.339844 396.835938 746.65625 396.121094 736.507812 396.121094 C 743.640625 391.542969 752.148438 385.640625 760.429688 379.960938 C 759.128906 374.839844 757.683594 369.851562 756.503906 365.316406 C 759.765625 368.453125 763.335938 371.894531 767.027344 375.449219 C 770.34375 373.199219 773.550781 371.0625 776.5 369.167969 C 775.441406 373.253906 774.363281 377.335938 773.230469 381.421875 C 781.304688 389.195312 789.554688 397.136719 796.5 403.824219 Z M 128.527344 25.070312 C 137.566406 30.894531 146.632812 37.15625 153.4375 42.070312 C 144.414062 43.808594 135.386719 43.667969 126.359375 43.175781 C 125.371094 50.167969 124.316406 57.246094 123.207031 64.710938 C 124.34375 57.046875 123.347656 49.800781 121.136719 42.871094 C 115.105469 42.488281 109.082031 42.070312 103.054688 42.070312 C 106.914062 37.113281 110.242188 31.648438 113.496094 26.105469 C 110.570312 20.917969 107.382812 15.867188 104.3125 10.941406 C 108.25 12.835938 112.980469 15.507812 117.992188 18.515625 C 121.707031 12.101562 125.476562 5.734375 129.925781 0.0273438 C 129.925781 8.742188 129.332031 16.945312 128.527344 25.070312 Z M 756.355469 119.902344 C 747.546875 119.875 742.363281 114.882812 742.335938 106.402344 C 742.300781 95.453125 757.03125 93.722656 761.835938 101.125 C 769.523438 105.75 767.726562 119.933594 756.355469 119.898438 Z M 742.816406 611.144531 C 734.007812 611.121094 728.824219 606.128906 728.796875 597.644531 C 728.761719 586.699219 743.492188 584.964844 748.296875 592.367188 C 755.984375 596.996094 754.1875 611.175781 742.816406 611.144531 Z M 742.816406 611.144531 " fill-opacity="1" fill-rule="nonzero"/></g></svg>