<svg xmlns="http://www.w3.org/2000/svg" xmlns:xlink="http://www.w3.org/1999/xlink" width="1080" zoomAndPan="magnify" viewBox="0 0 810 809.999993" height="1080" preserveAspectRatio="xMidYMid meet" version="1.0"><path fill="#ffffff" d="M 136.324219 575.40625 C 127.929688 573.589844 122.21875 572.621094 116.945312 570.546875 C 94.074219 561.546875 60.066406 558.976562 57.527344 531.914062 C 55.140625 506.441406 85.585938 492.578125 106.023438 478.851562 C 159.789062 442.734375 218.960938 438.988281 280.335938 454.210938 C 290.292969 456.683594 300.222656 459.816406 309.613281 463.917969 C 326.804688 471.421875 334.707031 462.664062 341.433594 448.453125 C 349.5 431.402344 338.378906 426.832031 326.257812 420.820312 C 240.65625 378.386719 204.011719 308.074219 209.589844 214.054688 C 211.605469 180.050781 222.082031 172.859375 252.984375 186.40625 C 324.683594 217.839844 366.21875 272.894531 378.488281 350.078125 C 380.636719 363.617188 383.207031 377.234375 383.582031 390.871094 C 384.179688 412.46875 398.019531 413.296875 414.109375 413.386719 C 431.441406 413.480469 443.320312 408.863281 442.707031 388.558594 C 441.984375 364.464844 443.574219 340.6875 450.921875 317.375 C 470.347656 255.75 510.414062 212.640625 568.527344 186.070312 C 598.902344 172.183594 609.640625 179.78125 612.222656 213.074219 C 619.695312 309.28125 580.667969 379.136719 494.300781 422.078125 C 483.113281 427.640625 472.964844 431.714844 479.742188 446.976562 C 485.746094 460.507812 492.296875 471.289062 510.605469 464.273438 C 539.523438 453.199219 569.226562 447.753906 600.730469 446.304688 C 661.425781 443.515625 708.769531 469.121094 752.285156 507.003906 C 774.332031 526.195312 770.804688 540.875 746.105469 553.78125 C 670.386719 593.339844 596.820312 589.480469 525.496094 542.988281 C 513.152344 534.941406 501.957031 525.125 488.941406 515.136719 C 435.613281 557.632812 434.773438 623.761719 411.109375 682.140625 C 389.292969 624.316406 384.941406 560.90625 335.863281 513.980469 C 279.128906 562.433594 216.25 593.066406 136.324219 575.40625 M 234.347656 241.59375 C 238.726562 308.292969 269.699219 358.535156 327.964844 391.398438 C 345.78125 401.449219 357.75 399.175781 360.484375 375.089844 C 368.035156 308.574219 308.808594 226.53125 240.902344 211.167969 C 231.816406 217.628906 235.335938 227.546875 234.347656 241.59375 M 529.679688 235.316406 C 486.410156 268.960938 465.8125 314.542969 461.933594 367.960938 C 460.644531 385.679688 461.960938 405.308594 490.089844 394.085938 C 554.203125 368.511719 599.925781 278.253906 582.125 210.835938 C 562.25 209.574219 549.28125 224.125 529.679688 235.316406 M 203.4375 464.996094 C 157.207031 468.785156 119.902344 488.421875 90.550781 524.570312 C 154.257812 582 282.691406 548.679688 306.40625 488.875 C 277.214844 468.558594 244.355469 462.832031 203.4375 464.996094 M 713.808594 538.984375 C 731.527344 530.738281 731.25 520.640625 717.519531 508.285156 C 692.332031 485.621094 663.332031 469.898438 629.769531 466.21875 C 589.277344 461.773438 548.699219 461.316406 515.8125 492.621094 C 557.367188 551.085938 631.59375 569.058594 713.808594 538.984375 M 457.152344 459.4375 C 442.574219 439.25 396.714844 427.089844 379.425781 442.527344 C 365.152344 455.269531 346.460938 474.683594 360.550781 495.039062 C 380.398438 523.707031 395.65625 554.585938 412.480469 590.546875 C 425.496094 553.601562 438.742188 523.21875 461.09375 498.167969 C 472.519531 485.363281 464.429688 475.054688 457.152344 459.4375 Z M 457.152344 459.4375 " fill-opacity="1" fill-rule="nonzero"/><path fill="#ffffff" d="M 603.671875 341.378906 C 611.457031 333.164062 617.726562 326.082031 625.554688 321.972656 C 653.503906 307.296875 690.953125 312.902344 711.046875 334.722656 C 730.164062 355.484375 733.445312 379.261719 719.992188 404.203125 C 703.777344 434.261719 676.621094 445.109375 644.847656 438.628906 C 612.777344 432.09375 582.015625 418.761719 539.015625 427.292969 C 556.105469 396.503906 573.609375 390.777344 597.460938 401.265625 C 614.039062 408.558594 628.785156 420.035156 648.214844 420.164062 C 681.652344 420.390625 703.140625 390.875 691.660156 359.804688 C 679.957031 328.136719 664.355469 323.992188 639.757812 347.546875 C 624.929688 361.746094 612.597656 371.453125 603.671875 341.378906 Z M 603.671875 341.378906 " fill-opacity="1" fill-rule="nonzero"/><path fill="#ffffff" d="M 242.898438 396.667969 C 256.914062 401.964844 269.144531 406.03125 268.304688 426.921875 C 230.941406 417.226562 196.964844 432.714844 161.453125 437.730469 C 128.171875 442.429688 103.109375 429.101562 90.695312 397.226562 C 79.851562 369.394531 88.242188 345.457031 111.351562 327.511719 C 135.0625 309.09375 174.691406 309.410156 197.851562 327.234375 C 206.8125 334.132812 218.25 341.808594 207.011719 354.675781 C 197.140625 365.976562 187.703125 361.378906 178.25 351.640625 C 168.625 341.722656 160.386719 324.21875 142.308594 334.285156 C 125 343.921875 117.09375 361.660156 119.476562 380.664062 C 121.855469 399.644531 133.078125 414.730469 153.390625 419.089844 C 169.582031 422.566406 184.949219 418.890625 199.320312 410.492188 C 212.050781 403.054688 224.601562 394.75 242.898438 396.667969 Z M 242.898438 396.667969 " fill-opacity="1" fill-rule="nonzero"/></svg>