<svg xmlns="http://www.w3.org/2000/svg" xmlns:xlink="http://www.w3.org/1999/xlink" width="1080" zoomAndPan="magnify" viewBox="0 0 810 809.999993" height="1080" preserveAspectRatio="xMidYMid meet" version="1.0"><defs><clipPath id="cdd97c232f"><path d="M 24.425781 20.785156 L 795.855469 20.785156 L 795.855469 789.214844 L 24.425781 789.214844 Z M 24.425781 20.785156 " clip-rule="nonzero"/></clipPath><clipPath id="d18e9ab207"><path d="M 62.675781 20.785156 L 757.210938 20.785156 C 767.355469 20.785156 777.082031 24.816406 784.257812 31.988281 C 791.429688 39.164062 795.460938 48.890625 795.460938 59.035156 L 795.460938 750.964844 C 795.460938 761.109375 791.429688 770.835938 784.257812 778.011719 C 777.082031 785.183594 767.355469 789.214844 757.210938 789.214844 L 62.675781 789.214844 C 52.53125 789.214844 42.800781 785.183594 35.628906 778.011719 C 28.457031 770.835938 24.425781 761.109375 24.425781 750.964844 L 24.425781 59.035156 C 24.425781 48.890625 28.457031 39.164062 35.628906 31.988281 C 42.800781 24.816406 52.53125 20.785156 62.675781 20.785156 Z M 62.675781 20.785156 " clip-rule="nonzero"/></clipPath></defs><rect x="-81" width="972" fill="#ffffff" y="-80.999999" height="971.999992" fill-opacity="1"/><rect x="-81" width="972" fill="#ffffff" y="-80.999999" height="971.999992" fill-opacity="1"/><g clip-path="url(#cdd97c232f)"><g clip-path="url(#d18e9ab207)"><path fill="#18216d" d="M 24.425781 20.785156 L 795.855469 20.785156 L 795.855469 789.214844 L 24.425781 789.214844 Z M 24.425781 20.785156 " fill-opacity="1" fill-rule="nonzero"/></g></g><path fill="#ffffff" d="M 121.285156 580.222656 C 112.652344 578.351562 106.78125 577.359375 101.359375 575.222656 C 77.839844 565.96875 42.867188 563.328125 40.261719 535.5 C 37.804688 509.308594 69.109375 495.050781 90.125 480.933594 C 145.414062 443.796875 206.261719 439.941406 269.367188 455.601562 C 279.609375 458.140625 289.820312 461.363281 299.476562 465.578125 C 317.152344 473.292969 325.28125 464.289062 332.195312 449.679688 C 340.492188 432.144531 329.058594 427.445312 316.59375 421.265625 C 228.566406 377.628906 190.886719 305.328125 196.621094 208.648438 C 198.695312 173.683594 209.46875 166.285156 241.246094 180.214844 C 314.972656 212.542969 357.683594 269.152344 370.296875 348.519531 C 372.511719 362.441406 375.152344 376.445312 375.539062 390.46875 C 376.152344 412.675781 390.382812 413.523438 406.929688 413.617188 C 424.75 413.714844 436.964844 408.96875 436.335938 388.085938 C 435.589844 363.3125 437.226562 338.863281 444.78125 314.890625 C 464.757812 251.523438 505.960938 207.195312 565.714844 179.875 C 596.949219 165.59375 607.988281 173.40625 610.648438 207.640625 C 618.332031 306.570312 578.199219 378.402344 489.386719 422.558594 C 477.882812 428.277344 467.449219 432.464844 474.417969 448.160156 C 480.589844 462.074219 487.328125 473.15625 506.15625 465.945312 C 535.890625 454.554688 566.433594 448.957031 598.828125 447.46875 C 661.238281 444.597656 709.921875 470.929688 754.671875 509.886719 C 777.339844 529.617188 773.714844 544.714844 748.316406 557.984375 C 670.457031 598.660156 594.808594 594.695312 521.464844 546.886719 C 508.769531 538.609375 497.261719 528.519531 483.878906 518.246094 C 429.039062 561.945312 428.175781 629.945312 403.84375 689.976562 C 381.410156 630.515625 376.933594 565.308594 326.46875 517.058594 C 268.128906 566.882812 203.472656 598.382812 121.285156 580.222656 M 222.082031 236.964844 C 226.585938 305.550781 258.433594 357.21875 318.347656 391.007812 C 336.667969 401.34375 348.976562 399.007812 351.789062 374.238281 C 359.550781 305.84375 298.648438 221.476562 228.820312 205.679688 C 219.476562 212.320312 223.097656 222.523438 222.082031 236.964844 M 525.765625 230.511719 C 481.273438 265.105469 460.097656 311.976562 456.105469 366.90625 C 454.78125 385.128906 456.136719 405.3125 485.058594 393.773438 C 550.984375 367.472656 598 274.664062 579.695312 205.339844 C 559.257812 204.042969 545.921875 219.003906 525.765625 230.511719 M 190.296875 466.6875 C 142.757812 470.585938 104.394531 490.777344 74.21875 527.949219 C 139.726562 587.003906 271.792969 552.738281 296.175781 491.242188 C 266.160156 470.351562 232.371094 464.464844 190.296875 466.6875 M 715.109375 542.769531 C 733.328125 534.289062 733.042969 523.910156 718.921875 511.199219 C 693.023438 487.894531 663.203125 471.730469 628.691406 467.945312 C 587.054688 463.375 545.328125 462.902344 511.511719 495.09375 C 554.238281 555.214844 630.566406 573.695312 715.109375 542.769531 M 451.191406 460.972656 C 436.199219 440.214844 389.042969 427.707031 371.261719 443.585938 C 356.585938 456.6875 337.363281 476.648438 351.855469 497.582031 C 372.261719 527.058594 387.957031 558.8125 405.253906 595.792969 C 418.636719 557.800781 432.257812 526.554688 455.242188 500.800781 C 466.992188 487.632812 458.671875 477.03125 451.191406 460.972656 Z M 451.191406 460.972656 " fill-opacity="1" fill-rule="nonzero"/><path fill="#ffffff" d="M 601.855469 339.570312 C 609.859375 331.128906 616.304688 323.847656 624.355469 319.621094 C 653.09375 304.527344 691.605469 310.292969 712.265625 332.730469 C 731.925781 354.078125 735.296875 378.53125 721.464844 404.175781 C 704.789062 435.085938 676.867188 446.238281 644.195312 439.578125 C 611.21875 432.855469 579.585938 419.144531 535.367188 427.917969 C 552.941406 396.257812 570.941406 390.371094 595.464844 401.15625 C 612.515625 408.652344 627.679688 420.453125 647.65625 420.589844 C 682.039062 420.820312 704.136719 390.46875 692.332031 358.519531 C 680.296875 325.957031 664.253906 321.695312 638.960938 345.914062 C 623.714844 360.515625 611.035156 370.5 601.855469 339.570312 Z M 601.855469 339.570312 " fill-opacity="1" fill-rule="nonzero"/><path fill="#ffffff" d="M 230.871094 396.429688 C 245.285156 401.875 257.859375 406.054688 256.996094 427.535156 C 218.582031 417.566406 183.640625 433.492188 147.125 438.648438 C 112.902344 443.484375 87.128906 429.78125 74.363281 397.003906 C 63.214844 368.378906 71.84375 343.769531 95.605469 325.3125 C 119.988281 306.375 160.738281 306.699219 184.550781 325.03125 C 193.765625 332.125 205.527344 340.015625 193.972656 353.246094 C 183.820312 364.867188 174.117188 360.140625 164.394531 350.125 C 154.5 339.925781 146.027344 321.929688 127.4375 332.28125 C 109.640625 342.191406 101.511719 360.429688 103.960938 379.96875 C 106.40625 399.488281 117.945312 415 138.835938 419.484375 C 155.484375 423.054688 171.285156 419.277344 186.0625 410.644531 C 199.152344 402.996094 212.0625 394.453125 230.871094 396.429688 Z M 230.871094 396.429688 " fill-opacity="1" fill-rule="nonzero"/></svg>